<svg width="168" height="54" viewBox="0 0 168 54" fill="none" xmlns="http://www.w3.org/2000/svg">
<rect width="168" height="54" rx="16" fill="#161617"/>
<path d="M64.9 23V16.44H66.54C67.5533 16.44 68.3233 16.7233 68.85 17.29C69.3767 17.85 69.64 18.65 69.64 19.69C69.64 20.7367 69.3767 21.55 68.85 22.13C68.33 22.71 67.5733 23 66.58 23H64.9ZM65.73 22.32H66.48C67.2467 22.32 67.82 22.09 68.2 21.63C68.5867 21.1633 68.78 20.5167 68.78 19.69C68.78 18.8633 68.5867 18.23 68.2 17.79C67.82 17.3433 67.2467 17.12 66.48 17.12H65.73V22.32ZM72.8623 23.12C72.469 23.12 72.099 23.02 71.7523 22.82C71.4123 22.62 71.1357 22.33 70.9223 21.95C70.7157 21.57 70.6123 21.1133 70.6123 20.58C70.6123 20.0333 70.7157 19.57 70.9223 19.19C71.1357 18.81 71.4123 18.52 71.7523 18.32C72.099 18.12 72.469 18.02 72.8623 18.02C73.2623 18.02 73.6323 18.12 73.9723 18.32C74.3123 18.52 74.5857 18.81 74.7923 19.19C75.0057 19.57 75.1123 20.0333 75.1123 20.58C75.1123 21.1133 75.0057 21.57 74.7923 21.95C74.5857 22.33 74.3123 22.62 73.9723 22.82C73.6323 23.02 73.2623 23.12 72.8623 23.12ZM72.8623 22.44C73.2823 22.44 73.619 22.27 73.8723 21.93C74.1323 21.5833 74.2623 21.1333 74.2623 20.58C74.2623 20.02 74.1323 19.5667 73.8723 19.22C73.619 18.8733 73.2823 18.7 72.8623 18.7C72.449 18.7 72.1123 18.8733 71.8523 19.22C71.5923 19.5667 71.4623 20.02 71.4623 20.58C71.4623 21.1333 71.5923 21.5833 71.8523 21.93C72.1123 22.27 72.449 22.44 72.8623 22.44ZM77.1232 23L75.7732 18.14H76.6132L77.3332 20.95C77.3865 21.1767 77.4365 21.4033 77.4832 21.63C77.5299 21.85 77.5765 22.0733 77.6232 22.3H77.6632C77.7165 22.0733 77.7699 21.85 77.8232 21.63C77.8765 21.4033 77.9332 21.1767 77.9932 20.95L78.7432 18.14H79.5432L80.3032 20.95C80.3632 21.1767 80.4199 21.4033 80.4732 21.63C80.5332 21.85 80.5899 22.0733 80.6432 22.3H80.6832C80.7365 22.0733 80.7865 21.85 80.8332 21.63C80.8865 21.4033 80.9365 21.1767 80.9832 20.95L81.6932 18.14H82.4732L81.1732 23H80.1732L79.4732 20.39C79.4132 20.1567 79.3565 19.9267 79.3032 19.7C79.2565 19.4733 79.2032 19.2367 79.1432 18.99H79.1032C79.0499 19.2367 78.9965 19.4767 78.9432 19.71C78.8899 19.9367 78.8299 20.1667 78.7632 20.4L78.0832 23H77.1232ZM83.5309 23V18.14H84.2109L84.2809 18.84H84.3109C84.5443 18.6067 84.7909 18.4133 85.0509 18.26C85.3109 18.1 85.6076 18.02 85.9409 18.02C86.4543 18.02 86.8276 18.1833 87.0609 18.51C87.3009 18.83 87.4209 19.3 87.4209 19.92V23H86.6009V20.03C86.6009 19.5767 86.5276 19.2467 86.3809 19.04C86.2343 18.8333 86.0009 18.73 85.6809 18.73C85.4343 18.73 85.2109 18.7933 85.0109 18.92C84.8176 19.0467 84.5976 19.2333 84.3509 19.48V23H83.5309ZM89.8697 23.12C89.563 23.12 89.3397 23.0267 89.1997 22.84C89.0664 22.6467 88.9997 22.3733 88.9997 22.02V15.88H89.8197V22.08C89.8197 22.2067 89.843 22.3 89.8897 22.36C89.9364 22.4133 89.9897 22.44 90.0497 22.44C90.0764 22.44 90.0997 22.44 90.1197 22.44C90.1464 22.4333 90.183 22.4267 90.2297 22.42L90.3397 23.04C90.2864 23.0667 90.223 23.0867 90.1497 23.1C90.0764 23.1133 89.983 23.12 89.8697 23.12ZM93.4385 23.12C93.0452 23.12 92.6752 23.02 92.3285 22.82C91.9885 22.62 91.7118 22.33 91.4985 21.95C91.2918 21.57 91.1885 21.1133 91.1885 20.58C91.1885 20.0333 91.2918 19.57 91.4985 19.19C91.7118 18.81 91.9885 18.52 92.3285 18.32C92.6752 18.12 93.0452 18.02 93.4385 18.02C93.8385 18.02 94.2085 18.12 94.5485 18.32C94.8885 18.52 95.1618 18.81 95.3685 19.19C95.5818 19.57 95.6885 20.0333 95.6885 20.58C95.6885 21.1133 95.5818 21.57 95.3685 21.95C95.1618 22.33 94.8885 22.62 94.5485 22.82C94.2085 23.02 93.8385 23.12 93.4385 23.12ZM93.4385 22.44C93.8585 22.44 94.1952 22.27 94.4485 21.93C94.7085 21.5833 94.8385 21.1333 94.8385 20.58C94.8385 20.02 94.7085 19.5667 94.4485 19.22C94.1952 18.8733 93.8585 18.7 93.4385 18.7C93.0252 18.7 92.6885 18.8733 92.4285 19.22C92.1685 19.5667 92.0385 20.02 92.0385 20.58C92.0385 21.1333 92.1685 21.5833 92.4285 21.93C92.6885 22.27 93.0252 22.44 93.4385 22.44ZM97.9517 23.12C97.5451 23.12 97.2051 23 96.9317 22.76C96.6651 22.5133 96.5317 22.1733 96.5317 21.74C96.5317 21.2067 96.7684 20.8 97.2417 20.52C97.7217 20.2333 98.4784 20.0333 99.5117 19.92C99.5117 19.7133 99.4817 19.5167 99.4217 19.33C99.3684 19.1433 99.2684 18.9933 99.1217 18.88C98.9817 18.76 98.7784 18.7 98.5117 18.7C98.2317 18.7 97.9684 18.7533 97.7217 18.86C97.4751 18.9667 97.2551 19.0867 97.0617 19.22L96.7417 18.65C96.9684 18.5033 97.2451 18.3633 97.5717 18.23C97.9051 18.09 98.2651 18.02 98.6517 18.02C99.2451 18.02 99.6751 18.2033 99.9417 18.57C100.208 18.93 100.342 19.4133 100.342 20.02V23H99.6617L99.5917 22.42H99.5617C99.3351 22.6067 99.0851 22.77 98.8117 22.91C98.5451 23.05 98.2584 23.12 97.9517 23.12ZM98.1917 22.46C98.4251 22.46 98.6451 22.4033 98.8517 22.29C99.0584 22.1767 99.2784 22.0167 99.5117 21.81V20.46C98.7051 20.56 98.1384 20.71 97.8117 20.91C97.4917 21.11 97.3317 21.3667 97.3317 21.68C97.3317 21.9533 97.4151 22.1533 97.5817 22.28C97.7484 22.4 97.9517 22.46 98.1917 22.46ZM103.531 23.12C102.924 23.12 102.437 22.9 102.071 22.46C101.704 22.0133 101.521 21.3867 101.521 20.58C101.521 20.0533 101.617 19.6 101.811 19.22C102.011 18.8333 102.271 18.5367 102.591 18.33C102.917 18.1233 103.264 18.02 103.631 18.02C103.911 18.02 104.154 18.07 104.361 18.17C104.567 18.27 104.777 18.4067 104.991 18.58L104.951 17.75V15.88H105.781V23H105.101L105.031 22.43H105.001C104.814 22.6167 104.594 22.78 104.341 22.92C104.087 23.0533 103.817 23.12 103.531 23.12ZM103.711 22.43C104.137 22.43 104.551 22.2067 104.951 21.76V19.22C104.744 19.0333 104.544 18.9033 104.351 18.83C104.164 18.75 103.971 18.71 103.771 18.71C103.511 18.71 103.274 18.79 103.061 18.95C102.854 19.1033 102.687 19.32 102.561 19.6C102.434 19.8733 102.371 20.1967 102.371 20.57C102.371 21.15 102.487 21.6067 102.721 21.94C102.954 22.2667 103.284 22.43 103.711 22.43ZM110.47 23L108.72 18.14H109.57L110.49 20.9C110.563 21.14 110.636 21.38 110.71 21.62C110.79 21.86 110.866 22.0967 110.94 22.33H110.98C111.053 22.0967 111.126 21.86 111.2 21.62C111.28 21.38 111.353 21.14 111.42 20.9L112.34 18.14H113.15L111.43 23H110.47ZM114.088 23V18.14H114.908V23H114.088ZM114.508 17.14C114.348 17.14 114.214 17.0933 114.108 17C114.008 16.9 113.958 16.7667 113.958 16.6C113.958 16.44 114.008 16.31 114.108 16.21C114.214 16.11 114.348 16.06 114.508 16.06C114.668 16.06 114.798 16.11 114.898 16.21C115.004 16.31 115.058 16.44 115.058 16.6C115.058 16.7667 115.004 16.9 114.898 17C114.798 17.0933 114.668 17.14 114.508 17.14ZM117.669 23.12C117.262 23.12 116.922 23 116.649 22.76C116.382 22.5133 116.249 22.1733 116.249 21.74C116.249 21.2067 116.485 20.8 116.959 20.52C117.439 20.2333 118.195 20.0333 119.229 19.92C119.229 19.7133 119.199 19.5167 119.139 19.33C119.085 19.1433 118.985 18.9933 118.839 18.88C118.699 18.76 118.495 18.7 118.229 18.7C117.949 18.7 117.685 18.7533 117.439 18.86C117.192 18.9667 116.972 19.0867 116.779 19.22L116.459 18.65C116.685 18.5033 116.962 18.3633 117.289 18.23C117.622 18.09 117.982 18.02 118.369 18.02C118.962 18.02 119.392 18.2033 119.659 18.57C119.925 18.93 120.059 19.4133 120.059 20.02V23H119.379L119.309 22.42H119.279C119.052 22.6067 118.802 22.77 118.529 22.91C118.262 23.05 117.975 23.12 117.669 23.12ZM117.909 22.46C118.142 22.46 118.362 22.4033 118.569 22.29C118.775 22.1767 118.995 22.0167 119.229 21.81V20.46C118.422 20.56 117.855 20.71 117.529 20.91C117.209 21.11 117.049 21.3667 117.049 21.68C117.049 21.9533 117.132 22.1533 117.299 22.28C117.465 22.4 117.669 22.46 117.909 22.46Z" fill="#F7F2FA"/>
<path d="M66.99 32.71L66.782 33.49H68.589L68.394 32.71C68.2813 32.2853 68.1643 31.8347 68.043 31.358C67.9303 30.8813 67.8177 30.422 67.705 29.98H67.653C67.549 30.4307 67.4407 30.8943 67.328 31.371C67.224 31.839 67.1113 32.2853 66.99 32.71ZM63.922 37L66.574 28.524H68.875L71.527 37H69.499L68.979 34.985H66.392L65.872 37H63.922ZM72.2971 39.392V30.552H73.8571L73.9871 31.189H74.0391C74.2905 30.9637 74.5721 30.7773 74.8841 30.63C75.2048 30.474 75.5341 30.396 75.8721 30.396C76.6521 30.396 77.2675 30.695 77.7181 31.293C78.1688 31.8823 78.3941 32.6753 78.3941 33.672C78.3941 34.4087 78.2641 35.037 78.0041 35.557C77.7441 36.077 77.4061 36.4757 76.9901 36.753C76.5828 37.0217 76.1451 37.156 75.6771 37.156C75.3998 37.156 75.1311 37.0997 74.8711 36.987C74.6111 36.8657 74.3685 36.6967 74.1431 36.48L74.2081 37.507V39.392H72.2971ZM75.2351 35.596C75.5645 35.596 75.8461 35.4443 76.0801 35.141C76.3141 34.8377 76.4311 34.3567 76.4311 33.698C76.4311 32.5367 76.0585 31.956 75.3131 31.956C74.9405 31.956 74.5721 32.151 74.2081 32.541V35.18C74.3815 35.336 74.5548 35.4443 74.7281 35.505C74.9015 35.5657 75.0705 35.596 75.2351 35.596ZM79.7493 39.392V30.552H81.3093L81.4393 31.189H81.4913C81.7426 30.9637 82.0243 30.7773 82.3363 30.63C82.657 30.474 82.9863 30.396 83.3243 30.396C84.1043 30.396 84.7196 30.695 85.1703 31.293C85.621 31.8823 85.8463 32.6753 85.8463 33.672C85.8463 34.4087 85.7163 35.037 85.4563 35.557C85.1963 36.077 84.8583 36.4757 84.4423 36.753C84.035 37.0217 83.5973 37.156 83.1293 37.156C82.852 37.156 82.5833 37.0997 82.3233 36.987C82.0633 36.8657 81.8206 36.6967 81.5953 36.48L81.6603 37.507V39.392H79.7493ZM82.6873 35.596C83.0166 35.596 83.2983 35.4443 83.5323 35.141C83.7663 34.8377 83.8833 34.3567 83.8833 33.698C83.8833 32.5367 83.5106 31.956 82.7653 31.956C82.3926 31.956 82.0243 32.151 81.6603 32.541V35.18C81.8336 35.336 82.007 35.4443 82.1803 35.505C82.3536 35.5657 82.5226 35.596 82.6873 35.596ZM88.9564 37.156C88.2978 37.156 87.8384 36.961 87.5784 36.571C87.3271 36.1723 87.2014 35.648 87.2014 34.998V27.887H89.1124V35.076C89.1124 35.2753 89.1471 35.414 89.2164 35.492C89.2944 35.57 89.3724 35.609 89.4504 35.609C89.4938 35.609 89.5284 35.609 89.5544 35.609C89.5891 35.6003 89.6324 35.5917 89.6844 35.583L89.9184 37C89.8144 37.0433 89.6801 37.078 89.5154 37.104C89.3594 37.1387 89.1731 37.156 88.9564 37.156ZM93.8072 37.156C93.1918 37.156 92.6372 37.0217 92.1432 36.753C91.6492 36.4843 91.2592 36.0987 90.9732 35.596C90.6872 35.0933 90.5442 34.4867 90.5442 33.776C90.5442 33.074 90.6872 32.4717 90.9732 31.969C91.2678 31.4663 91.6492 31.0807 92.1172 30.812C92.5852 30.5347 93.0748 30.396 93.5862 30.396C94.2015 30.396 94.7085 30.5347 95.1072 30.812C95.5145 31.0807 95.8178 31.449 96.0172 31.917C96.2252 32.3763 96.3292 32.9007 96.3292 33.49C96.3292 33.6547 96.3205 33.8193 96.3032 33.984C96.2858 34.14 96.2685 34.257 96.2512 34.335H92.3902C92.4768 34.803 92.6718 35.1497 92.9752 35.375C93.2785 35.5917 93.6425 35.7 94.0672 35.7C94.5265 35.7 94.9902 35.557 95.4582 35.271L96.0952 36.428C95.7658 36.6533 95.3975 36.831 94.9902 36.961C94.5828 37.091 94.1885 37.156 93.8072 37.156ZM92.3772 33.074H94.7042C94.7042 32.7187 94.6175 32.4283 94.4442 32.203C94.2795 31.969 94.0065 31.852 93.6252 31.852C93.3305 31.852 93.0662 31.956 92.8322 32.164C92.5982 32.3633 92.4465 32.6667 92.3772 33.074ZM102.995 37.156C102.441 37.156 101.886 37.052 101.331 36.844C100.785 36.636 100.296 36.3327 99.8622 35.934L100.954 34.621C101.258 34.881 101.596 35.0933 101.968 35.258C102.341 35.4227 102.701 35.505 103.047 35.505C103.446 35.505 103.741 35.4313 103.931 35.284C104.131 35.1367 104.23 34.9373 104.23 34.686C104.23 34.4173 104.118 34.2223 103.892 34.101C103.676 33.971 103.381 33.828 103.008 33.672L101.903 33.204C101.617 33.0827 101.344 32.9223 101.084 32.723C100.824 32.515 100.612 32.2593 100.447 31.956C100.283 31.6527 100.2 31.2973 100.2 30.89C100.2 30.422 100.326 29.9973 100.577 29.616C100.837 29.2347 101.193 28.9313 101.643 28.706C102.103 28.4807 102.627 28.368 103.216 28.368C103.702 28.368 104.187 28.4633 104.672 28.654C105.158 28.8447 105.582 29.122 105.946 29.486L104.971 30.695C104.694 30.4783 104.417 30.3137 104.139 30.201C103.862 30.0797 103.554 30.019 103.216 30.019C102.887 30.019 102.623 30.0883 102.423 30.227C102.233 30.357 102.137 30.5433 102.137 30.786C102.137 31.046 102.259 31.241 102.501 31.371C102.753 31.501 103.06 31.6397 103.424 31.787L104.516 32.229C105.028 32.437 105.435 32.723 105.738 33.087C106.042 33.451 106.193 33.932 106.193 34.53C106.193 34.998 106.068 35.4313 105.816 35.83C105.565 36.2287 105.201 36.5493 104.724 36.792C104.248 37.0347 103.671 37.156 102.995 37.156ZM109.591 37.156C108.793 37.156 108.221 36.9263 107.875 36.467C107.537 36.0077 107.368 35.4053 107.368 34.66V32.047H106.484V30.63L107.472 30.552L107.693 28.836H109.279V30.552H110.826V32.047H109.279V34.634C109.279 34.998 109.352 35.2623 109.5 35.427C109.656 35.583 109.859 35.661 110.111 35.661C110.215 35.661 110.319 35.648 110.423 35.622C110.535 35.596 110.635 35.5657 110.722 35.531L111.021 36.922C110.856 36.974 110.652 37.026 110.41 37.078C110.176 37.13 109.903 37.156 109.591 37.156ZM114.625 37.156C114.079 37.156 113.563 37.026 113.078 36.766C112.601 36.4973 112.215 36.1117 111.921 35.609C111.626 35.0977 111.479 34.4867 111.479 33.776C111.479 33.0567 111.626 32.4457 111.921 31.943C112.215 31.4403 112.601 31.059 113.078 30.799C113.563 30.5303 114.079 30.396 114.625 30.396C115.171 30.396 115.682 30.5303 116.159 30.799C116.635 31.059 117.021 31.4403 117.316 31.943C117.61 32.4457 117.758 33.0567 117.758 33.776C117.758 34.4867 117.61 35.0977 117.316 35.609C117.021 36.1117 116.635 36.4973 116.159 36.766C115.682 37.026 115.171 37.156 114.625 37.156ZM114.625 35.609C115.015 35.609 115.309 35.4443 115.509 35.115C115.708 34.777 115.808 34.3307 115.808 33.776C115.808 33.2127 115.708 32.7663 115.509 32.437C115.309 32.1077 115.015 31.943 114.625 31.943C114.226 31.943 113.927 32.1077 113.728 32.437C113.537 32.7663 113.442 33.2127 113.442 33.776C113.442 34.3307 113.537 34.777 113.728 35.115C113.927 35.4443 114.226 35.609 114.625 35.609ZM119.067 37V30.552H120.627L120.757 31.683H120.809C121.043 31.2497 121.324 30.929 121.654 30.721C121.983 30.5043 122.312 30.396 122.642 30.396C122.824 30.396 122.975 30.409 123.097 30.435C123.218 30.4523 123.322 30.4827 123.409 30.526L123.097 32.177C122.984 32.1423 122.871 32.1163 122.759 32.099C122.655 32.0817 122.533 32.073 122.395 32.073C122.152 32.073 121.896 32.164 121.628 32.346C121.368 32.5193 121.151 32.8227 120.978 33.256V37H119.067ZM127.005 37.156C126.39 37.156 125.835 37.0217 125.341 36.753C124.847 36.4843 124.457 36.0987 124.171 35.596C123.885 35.0933 123.742 34.4867 123.742 33.776C123.742 33.074 123.885 32.4717 124.171 31.969C124.466 31.4663 124.847 31.0807 125.315 30.812C125.783 30.5347 126.273 30.396 126.784 30.396C127.4 30.396 127.907 30.5347 128.305 30.812C128.713 31.0807 129.016 31.449 129.215 31.917C129.423 32.3763 129.527 32.9007 129.527 33.49C129.527 33.6547 129.519 33.8193 129.501 33.984C129.484 34.14 129.467 34.257 129.449 34.335H125.588C125.675 34.803 125.87 35.1497 126.173 35.375C126.477 35.5917 126.841 35.7 127.265 35.7C127.725 35.7 128.188 35.557 128.656 35.271L129.293 36.428C128.964 36.6533 128.596 36.831 128.188 36.961C127.781 37.091 127.387 37.156 127.005 37.156ZM125.575 33.074H127.902C127.902 32.7187 127.816 32.4283 127.642 32.203C127.478 31.969 127.205 31.852 126.823 31.852C126.529 31.852 126.264 31.956 126.03 32.164C125.796 32.3633 125.645 32.6667 125.575 33.074Z" fill="#F7F2FA"/>
<path d="M37.0097 27.8722C36.8389 24.858 38.9487 21.7813 42.0511 21.7813C42.7655 21.7813 43.0895 21.9505 43.8676 22.1971C44.2842 22.3291 44.9902 22.696 45.3984 22.696C45.8066 22.696 46.2964 22.4257 46.9572 22.1789C47.8946 21.8287 48.449 21.7913 48.9906 21.7813C50.8072 21.7813 52.1408 22.5548 52.9911 23.7562C51.5876 24.6864 50.848 25.8142 50.8071 27.6436C50.8071 29.3066 51.8481 30.9281 53.5217 31.6557C53.1135 33.4019 50.9092 36.9983 49.0927 36.9983C48.4689 36.9619 48.0856 36.8628 47.3578 36.5825C46.8155 36.3404 46.0923 36.1667 45.6229 36.1667C45.133 36.146 44.584 36.3077 43.8982 36.5825C43.3165 36.8156 42.9699 36.9479 42.1735 36.9983C40.6631 37.0937 37.3123 33.2148 37.0097 27.8722Z" fill="url(#paint0_linear_3865_24103)"/>
<path d="M46.3781 18.5383C45.5355 19.4625 45.2147 20.6795 45.2759 21.7813C46.6638 21.6774 47.6231 21.0953 48.5008 20.0143C49.3784 18.9333 49.3849 18.1478 49.3784 17C48.3569 17.1693 47.1741 17.6652 46.3781 18.5383Z" fill="url(#paint1_linear_3865_24103)"/>
<defs>
<linearGradient id="paint0_linear_3865_24103" x1="50.9609" y1="19.7" x2="37.7443" y2="32.2849" gradientUnits="userSpaceOnUse">
<stop stop-color="#FACC15"/>
<stop offset="1" stop-color="#CA8A04"/>
</linearGradient>
<linearGradient id="paint1_linear_3865_24103" x1="50.9609" y1="19.7" x2="37.7443" y2="32.2849" gradientUnits="userSpaceOnUse">
<stop stop-color="#FACC15"/>
<stop offset="1" stop-color="#CA8A04"/>
</linearGradient>
</defs>
</svg>
