<svg width="23" height="24" viewBox="0 0 23 24" fill="none" xmlns="http://www.w3.org/2000/svg">
<path d="M3.264 13.032C3.32 12.968 3.464 12.904 3.696 12.84C3.936 12.776 4.228 12.728 4.572 12.696C4.916 12.656 5.3 12.648 5.724 12.672C6.148 12.688 6.576 12.748 7.008 12.852C7.448 12.956 7.872 13.112 8.28 13.32C8.688 13.528 9.048 13.812 9.36 14.172C9.68 14.524 9.936 14.96 10.128 15.48C10.32 15.992 10.412 16.604 10.404 17.316C10.404 17.836 10.312 18.284 10.128 18.66C9.952 19.036 9.724 19.356 9.444 19.62C9.164 19.884 8.848 20.1 8.496 20.268C8.144 20.436 7.796 20.568 7.452 20.664C7.116 20.752 6.796 20.812 6.492 20.844C6.188 20.876 5.944 20.892 5.76 20.892C5.704 20.892 5.648 20.892 5.592 20.892C5.544 20.884 5.488 20.876 5.424 20.868L5.352 21.024L5.136 21.012L5.004 21.336L4.872 21.3L4.824 21.372C4.792 21.42 4.772 21.444 4.764 21.444C4.756 21.404 4.748 21.316 4.74 21.18C4.74 21.052 4.736 20.892 4.728 20.7C4.528 20.628 4.328 20.524 4.128 20.388C3.928 20.244 3.744 20.064 3.576 19.848C3.416 19.624 3.284 19.352 3.18 19.032C3.084 18.704 3.036 18.316 3.036 17.868C3.068 17.796 3.1 17.744 3.132 17.712C3.156 17.688 3.18 17.684 3.204 17.7C3.228 17.708 3.24 17.768 3.24 17.88C3.24 17.96 3.276 18.048 3.348 18.144C3.42 18.24 3.516 18.336 3.636 18.432C3.764 18.52 3.916 18.608 4.092 18.696C4.268 18.776 4.464 18.844 4.68 18.9C4.672 18.556 4.66 18.196 4.644 17.82C4.636 17.444 4.624 17.076 4.608 16.716C4.6 16.348 4.588 15.996 4.572 15.66C4.556 15.316 4.536 15 4.512 14.712C4.36 14.744 4.208 14.776 4.056 14.808C3.912 14.84 3.764 14.88 3.612 14.928C3.516 14.88 3.42 14.78 3.324 14.628C3.236 14.468 3.168 14.288 3.12 14.088C3.072 13.888 3.056 13.692 3.072 13.5C3.088 13.308 3.152 13.152 3.264 13.032ZM5.796 19.032C5.788 18.848 5.784 18.668 5.784 18.492C5.792 18.308 5.796 18.144 5.796 18V17.508L5.688 19.032H5.748H5.796ZM9.396 16.896C9.404 16.704 9.328 16.496 9.168 16.272C9.008 16.048 8.78 15.836 8.484 15.636C8.196 15.428 7.852 15.244 7.452 15.084C7.052 14.916 6.62 14.796 6.156 14.724C6.148 15.076 6.136 15.452 6.12 15.852C6.112 16.252 6.1 16.648 6.084 17.04C6.076 17.424 6.064 17.788 6.048 18.132C6.032 18.476 6.02 18.772 6.012 19.02C6.388 18.988 6.772 18.904 7.164 18.768C7.564 18.624 7.924 18.452 8.244 18.252C8.572 18.052 8.84 17.836 9.048 17.604C9.264 17.364 9.38 17.128 9.396 16.896ZM11.6292 18.876C12.0372 18.748 12.4692 18.624 12.9252 18.504C13.3892 18.384 13.8532 18.284 14.3172 18.204C14.7812 18.124 15.2292 18.076 15.6612 18.06C16.0932 18.036 16.4812 18.056 16.8252 18.12C16.8252 18.144 16.8132 18.172 16.7892 18.204C16.7652 18.236 16.7372 18.268 16.7052 18.3C16.6732 18.332 16.6372 18.372 16.5972 18.42L16.5372 18.564L16.0812 18.78L16.4172 18.816C16.3532 18.84 16.2892 18.868 16.2252 18.9C16.1692 18.924 16.1092 18.956 16.0452 18.996C15.9892 19.028 15.9372 19.064 15.8892 19.104C15.7852 19.184 15.7092 19.26 15.6612 19.332C15.6132 19.404 15.5492 19.456 15.4692 19.488C15.4372 19.488 15.2692 19.524 14.9652 19.596C14.6612 19.668 14.2692 19.776 13.7892 19.92C13.3172 20.064 12.7812 20.244 12.1812 20.46C11.5892 20.676 10.9932 20.932 10.3932 21.228C10.2972 21.276 10.1932 21.228 10.0812 21.084C9.96922 20.94 9.87722 20.768 9.80522 20.568C9.73322 20.36 9.70122 20.156 9.70922 19.956C9.70922 19.748 9.78522 19.604 9.93722 19.524C9.99322 19.492 10.0772 19.456 10.1892 19.416C10.1892 19.072 10.1892 18.692 10.1892 18.276C10.1972 17.86 10.2012 17.436 10.2012 17.004C10.2012 16.572 10.1972 16.144 10.1892 15.72C10.1892 15.296 10.1812 14.904 10.1652 14.544C10.1572 14.176 10.1412 13.856 10.1172 13.584C10.0932 13.312 10.0652 13.112 10.0332 12.984C10.1212 12.96 10.2172 12.932 10.3212 12.9C10.4092 12.884 10.5092 12.868 10.6212 12.852C10.7412 12.828 10.8612 12.824 10.9812 12.84C11.3012 12.8 11.6932 12.772 12.1572 12.756C12.6212 12.74 13.0892 12.732 13.5612 12.732C14.0332 12.724 14.4732 12.724 14.8812 12.732C15.2892 12.74 15.5892 12.744 15.7812 12.744C15.7732 12.768 15.7692 12.796 15.7692 12.828C15.7692 12.86 15.7692 12.896 15.7692 12.936V13.056C15.7212 13.072 15.6772 13.096 15.6372 13.128C15.5972 13.152 15.5572 13.18 15.5172 13.212C15.4772 13.244 15.4372 13.28 15.3972 13.32C15.3812 13.336 15.3572 13.356 15.3252 13.38C15.3012 13.396 15.2732 13.416 15.2412 13.44C15.2092 13.472 15.1692 13.5 15.1212 13.524L15.3612 13.536L14.9652 13.74L14.9532 13.884C14.8652 13.924 14.7812 13.96 14.7012 13.992C14.6372 14.024 14.5732 14.052 14.5092 14.076C14.4532 14.092 14.4172 14.104 14.4012 14.112C14.3852 14.112 14.3012 14.124 14.1492 14.148C14.0052 14.172 13.8212 14.204 13.5972 14.244C13.3812 14.276 13.1372 14.316 12.8652 14.364C12.5932 14.404 12.3252 14.444 12.0612 14.484C12.0612 14.532 12.0572 14.58 12.0492 14.628C12.0492 14.676 12.0492 14.724 12.0492 14.772C12.0412 14.932 12.0332 15.084 12.0252 15.228C12.0172 15.372 12.0052 15.516 11.9892 15.66C12.2532 15.628 12.5252 15.6 12.8052 15.576C13.0932 15.552 13.3732 15.532 13.6452 15.516C13.9172 15.492 14.1692 15.48 14.4012 15.48C14.6412 15.472 14.8412 15.468 15.0012 15.468C15.0012 15.508 14.9852 15.56 14.9532 15.624C14.9372 15.656 14.9212 15.688 14.9052 15.72L14.8572 16.008L14.4852 16.212L14.6412 16.224L14.2452 16.476L14.2572 16.596L13.8252 16.704L13.7412 16.848C13.6612 16.888 13.5812 16.924 13.5012 16.956C13.4372 16.988 13.3692 17.02 13.2972 17.052C13.2332 17.076 13.1812 17.096 13.1412 17.112C13.1252 17.112 13.0732 17.124 12.9852 17.148C12.9052 17.164 12.8012 17.192 12.6732 17.232C12.5452 17.264 12.4052 17.3 12.2532 17.34C12.1092 17.38 11.9612 17.416 11.8092 17.448C11.7772 17.768 11.7452 18.048 11.7132 18.288C11.6812 18.528 11.6532 18.724 11.6292 18.876ZM22.2953 13.116C22.3113 13.204 22.3153 13.288 22.3073 13.368C22.3073 13.44 22.2993 13.512 22.2833 13.584C22.2113 13.768 22.0713 14.1 21.8633 14.58C21.6633 15.06 21.4393 15.636 21.1913 16.308C20.9433 16.972 20.7033 17.708 20.4713 18.516C20.2473 19.316 20.0753 20.136 19.9553 20.976C19.2193 21.096 18.6913 21.116 18.3713 21.036C18.0593 20.956 17.8833 20.78 17.8433 20.508C17.7553 20.564 17.6793 20.6 17.6153 20.616C17.5593 20.624 17.5193 20.6 17.4953 20.544C17.4713 20.448 17.4273 20.28 17.3633 20.04C17.2993 19.792 17.2233 19.5 17.1353 19.164C17.0473 18.82 16.9473 18.444 16.8353 18.036C16.7233 17.628 16.6033 17.212 16.4753 16.788C16.3473 16.364 16.2153 15.948 16.0793 15.54C15.9433 15.132 15.8073 14.756 15.6713 14.412C15.5353 14.068 15.3993 13.772 15.2633 13.524C15.1273 13.276 14.9953 13.104 14.8673 13.008C15.2833 12.752 15.6793 12.62 16.0553 12.612C16.2153 12.612 16.3753 12.64 16.5353 12.696C16.7033 12.744 16.8633 12.84 17.0153 12.984C17.1753 13.12 17.3193 13.308 17.4473 13.548C17.5753 13.788 17.6833 14.096 17.7713 14.472C17.8433 14.784 17.9193 15.104 17.9993 15.432C18.0873 15.76 18.1713 16.08 18.2513 16.392C18.3313 16.704 18.4033 17.008 18.4673 17.304C18.5393 17.6 18.5953 17.876 18.6353 18.132C18.8673 17.516 19.0993 16.932 19.3313 16.38C19.5713 15.82 19.8153 15.284 20.0633 14.772C20.3193 14.26 20.5793 13.768 20.8433 13.296C21.1153 12.816 21.3953 12.344 21.6833 11.88C21.7153 11.864 21.7313 11.884 21.7313 11.94C21.7393 11.988 21.7633 12.032 21.8033 12.072C21.8193 12.088 21.8473 12.084 21.8873 12.06C21.9273 12.036 21.9553 12.036 21.9713 12.06C21.9793 12.076 21.9833 12.108 21.9833 12.156C21.9913 12.196 21.9993 12.236 22.0073 12.276C22.0153 12.332 22.0193 12.388 22.0193 12.444C22.0433 12.452 22.0713 12.468 22.1033 12.492C22.1593 12.532 22.1993 12.592 22.2233 12.672C22.2233 12.688 22.2193 12.724 22.2113 12.78C22.2113 12.828 22.2033 12.884 22.1873 12.948C22.1713 13.02 22.1593 13.1 22.1513 13.188C22.1753 13.156 22.1993 13.132 22.2233 13.116C22.2713 13.084 22.2953 13.084 22.2953 13.116Z" fill="url(#paint0_linear_249_1533)"/>
<path d="M7.792 3.9C7.792 4.204 7.748 4.476 7.66 4.716C7.572 4.948 7.456 5.156 7.312 5.34C7.168 5.516 6.996 5.672 6.796 5.808C6.604 5.944 6.4 6.06 6.184 6.156C6.416 6.572 6.576 7.016 6.664 7.488C6.76 7.952 6.764 8.368 6.676 8.736C6.692 8.456 6.68 8.2 6.64 7.968C6.6 7.736 6.552 7.536 6.496 7.368C6.424 7.168 6.344 6.992 6.256 6.84C6.336 7.128 6.404 7.404 6.46 7.668C6.508 7.892 6.544 8.12 6.568 8.352C6.6 8.576 6.596 8.752 6.556 8.88C6.548 8.872 6.54 8.864 6.532 8.856C6.532 8.848 6.528 8.84 6.52 8.832L6.496 8.808C6.472 8.856 6.444 8.896 6.412 8.928C6.388 8.96 6.364 8.988 6.34 9.012C6.316 9.044 6.296 9.06 6.28 9.06C6.264 9.068 6.24 9.072 6.208 9.072C6.176 9.08 6.14 9.088 6.1 9.096C6.06 9.104 6.016 9.116 5.968 9.132L5.86 9.012C5.74 8.54 5.556 8.1 5.308 7.692C5.06 7.276 4.804 6.9 4.54 6.564C4.324 6.596 4.124 6.616 3.94 6.624C3.756 6.632 3.6 6.636 3.472 6.636H3.4C3.384 6.82 3.372 6.988 3.364 7.14C3.356 7.292 3.348 7.424 3.34 7.536C3.332 7.664 3.324 7.776 3.316 7.872C3.3 7.904 3.28 7.936 3.256 7.968C3.24 8 3.22 8.036 3.196 8.076C3.172 8.116 3.144 8.16 3.112 8.208C3.096 8.24 3.072 8.28 3.04 8.328C3.016 8.376 2.992 8.428 2.968 8.484C2.936 8.548 2.904 8.616 2.872 8.688C2.848 8.696 2.82 8.708 2.788 8.724C2.732 8.756 2.684 8.796 2.644 8.844C2.636 8.86 2.628 8.88 2.62 8.904C2.612 8.92 2.6 8.944 2.584 8.976C2.568 9.008 2.556 9.044 2.548 9.084L2.452 9.072L2.308 9.3L2.26 9.276C2.228 9.26 2.208 9.252 2.2 9.252C2.168 9.268 2.14 9.296 2.116 9.336C2.1 9.384 2.08 9.408 2.056 9.408C2.048 9.36 2.04 9.24 2.032 9.048C2.024 8.856 2.012 8.616 1.996 8.328C1.988 8.04 1.976 7.716 1.96 7.356C1.952 6.988 1.944 6.604 1.936 6.204C1.752 6.092 1.584 5.94 1.432 5.748C1.28 5.556 1.16 5.32 1.072 5.04C1.064 5.016 1.048 4.948 1.024 4.836C1.008 4.724 1.008 4.628 1.024 4.548C1.04 4.628 1.06 4.716 1.084 4.812C1.116 4.9 1.148 4.988 1.18 5.076C1.212 5.156 1.244 5.228 1.276 5.292C1.316 5.356 1.352 5.4 1.384 5.424C1.272 5.192 1.196 4.976 1.156 4.776C1.116 4.568 1.112 4.396 1.144 4.26C1.208 4.46 1.46 4.648 1.9 4.824C1.884 4.424 1.864 4.036 1.84 3.66C1.824 3.284 1.808 2.932 1.792 2.604C1.56 2.636 1.316 2.684 1.06 2.748C0.964 2.716 0.872 2.636 0.784 2.508C0.696 2.372 0.632 2.224 0.592 2.064C0.544 1.904 0.528 1.744 0.544 1.584C0.56 1.424 0.62 1.296 0.724 1.2C0.78 1.152 0.92 1.092 1.144 1.02C1.376 0.94 1.664 0.868 2.008 0.804C2.352 0.74 2.732 0.691999 3.148 0.659999C3.572 0.627999 3.996 0.631999 4.42 0.672C4.852 0.704 5.272 0.783999 5.68 0.912C6.088 1.032 6.448 1.22 6.76 1.476C7.072 1.724 7.324 2.048 7.516 2.448C7.708 2.84 7.8 3.324 7.792 3.9ZM6.856 3.564C6.864 3.396 6.796 3.236 6.652 3.084C6.516 2.932 6.308 2.804 6.028 2.7C5.748 2.588 5.4 2.504 4.984 2.448C4.576 2.392 4.104 2.376 3.568 2.4C3.576 2.464 3.58 2.532 3.58 2.604C3.58 2.668 3.58 2.74 3.58 2.82C3.572 3.204 3.56 3.592 3.544 3.984C3.528 4.368 3.508 4.748 3.484 5.124C3.844 5.124 4.22 5.08 4.612 4.992C5.004 4.896 5.364 4.776 5.692 4.632C6.02 4.488 6.292 4.324 6.508 4.14C6.724 3.956 6.84 3.764 6.856 3.564ZM7.55753 6.276C7.54153 6.236 7.52153 6.2 7.49753 6.168C7.48153 6.128 7.45353 6.108 7.41353 6.108C7.69353 5.412 7.96553 4.632 8.22953 3.768C8.49353 2.896 8.69353 1.912 8.82953 0.816C9.32553 0.743999 9.71753 0.716 10.0055 0.732C10.2935 0.748 10.5055 0.804 10.6415 0.9C10.8735 0.891999 11.0855 0.939999 11.2775 1.044C11.4775 1.14 11.5975 1.324 11.6375 1.596C11.6615 1.788 11.7055 2.064 11.7695 2.424C11.8335 2.776 11.9215 3.192 12.0335 3.672C12.1455 4.144 12.2815 4.668 12.4415 5.244C12.6095 5.812 12.8135 6.412 13.0535 7.044C13.0535 7.044 13.0215 7.012 12.9575 6.948L12.8615 6.852L12.7775 6.984L12.6455 6.9L12.5375 6.84L12.4055 6.948C12.3975 6.924 12.3855 6.9 12.3695 6.876C12.3455 6.844 12.3215 6.796 12.2975 6.732C12.2815 6.756 12.2655 6.796 12.2495 6.852C12.2335 6.9 12.2135 6.952 12.1895 7.008C12.1575 7.072 12.1295 7.136 12.1055 7.2L11.9975 7.128C11.6855 7.04 11.3655 6.984 11.0375 6.96C10.7175 6.928 10.3975 6.916 10.0775 6.924C9.76553 6.932 9.45753 6.956 9.15353 6.996C8.85753 7.036 8.58153 7.08 8.32553 7.128C8.04553 7.176 7.84553 7.112 7.72553 6.936C7.60553 6.752 7.54953 6.532 7.55753 6.276ZM9.48953 5.184C9.73753 5.2 9.98153 5.228 10.2215 5.268C10.4695 5.308 10.7015 5.36 10.9175 5.424C10.7815 5.12 10.6535 4.816 10.5335 4.512C10.4215 4.208 10.3095 3.912 10.1975 3.624C10.0855 3.904 9.96953 4.172 9.84953 4.428C9.73753 4.684 9.61753 4.936 9.48953 5.184ZM12.9815 8.436C13.0055 8.476 13.0255 8.516 13.0415 8.556C13.0575 8.596 13.0615 8.624 13.0535 8.64C13.0455 8.664 13.0335 8.704 13.0175 8.76C13.0095 8.808 12.9975 8.86 12.9815 8.916C12.9575 8.98 12.9375 9.052 12.9215 9.132L12.8135 9.072C12.4935 9.024 12.1175 9.004 11.6855 9.012C11.2615 9.02 10.8295 9.044 10.3895 9.084C9.95753 9.132 9.54553 9.192 9.15353 9.264C8.76153 9.336 8.44153 9.412 8.19353 9.492C7.98553 9.564 7.81353 9.552 7.67753 9.456C7.54153 9.368 7.44153 9.236 7.37753 9.06C7.32153 8.884 7.29753 8.684 7.30553 8.46C7.32153 8.236 7.37353 8.028 7.46153 7.836C7.66953 7.716 7.93753 7.624 8.26553 7.56C8.60153 7.488 8.96153 7.444 9.34553 7.428C9.72953 7.412 10.1175 7.416 10.5095 7.44C10.9015 7.464 11.2615 7.508 11.5895 7.572C11.9255 7.628 12.2095 7.7 12.4415 7.788C12.6735 7.876 12.8215 7.972 12.8855 8.076C12.8935 8.084 12.8935 8.088 12.8855 8.088C12.8775 8.088 12.8695 8.084 12.8615 8.076C12.8455 8.076 12.8335 8.072 12.8255 8.064L12.9935 8.268L12.8855 8.292L12.9815 8.436ZM17.9929 0.456C18.0329 0.496 18.0769 0.568 18.1249 0.672C18.1809 0.776 18.2249 0.895999 18.2569 1.032C18.2969 1.168 18.3169 1.312 18.3169 1.464C18.3249 1.616 18.3009 1.756 18.2449 1.884C18.1889 2.012 18.0929 2.116 17.9569 2.196C17.8209 2.276 17.6369 2.316 17.4049 2.316C17.3889 2.316 17.2929 2.324 17.1169 2.34C16.9489 2.348 16.7369 2.36 16.4809 2.376C16.2249 2.392 15.9369 2.412 15.6169 2.436C15.3049 2.452 15.0009 2.468 14.7049 2.484L14.6689 3.492C14.9169 3.468 15.1689 3.448 15.4249 3.432C15.6809 3.408 15.9249 3.392 16.1569 3.384C16.3969 3.368 16.6169 3.356 16.8169 3.348C17.0249 3.34 17.2009 3.336 17.3449 3.336C17.3449 3.376 17.3289 3.428 17.2969 3.492C17.2809 3.524 17.2649 3.556 17.2489 3.588L17.2129 3.876L16.8409 4.08L16.9849 4.092L16.6009 4.344L16.6129 4.464L16.1809 4.572L16.0969 4.716C16.0249 4.756 15.9489 4.792 15.8689 4.824C15.8049 4.856 15.7369 4.888 15.6649 4.92C15.5929 4.952 15.5369 4.976 15.4969 4.992C15.4729 4.992 15.3729 5.016 15.1969 5.064C15.0209 5.104 14.8169 5.156 14.5849 5.22C14.5609 5.572 14.5369 5.896 14.5129 6.192C14.4969 6.48 14.4809 6.736 14.4649 6.96C14.4409 7.224 14.4249 7.46 14.4169 7.668L14.3329 7.572L14.2849 7.872L14.1409 7.908L13.9849 8.364L13.6369 8.58L13.4329 8.868L13.3249 8.808L13.2289 9.12C13.2049 9.144 13.1849 9.168 13.1689 9.192C13.1209 9.24 13.0929 9.264 13.0849 9.264C13.0769 9.2 13.0649 9.048 13.0489 8.808C13.0409 8.568 13.0289 8.268 13.0129 7.908C13.0049 7.548 12.9929 7.144 12.9769 6.696C12.9689 6.24 12.9569 5.776 12.9409 5.304C12.9329 4.824 12.9169 4.348 12.8929 3.876C12.8769 3.396 12.8569 2.948 12.8329 2.532L12.6889 2.496L12.7729 2.352L12.5449 2.28L12.2209 2.208L12.3289 2.088L12.1489 1.932L12.3409 1.764L11.8729 1.752C11.8569 1.728 11.8409 1.7 11.8249 1.668C11.7929 1.604 11.7769 1.56 11.7769 1.536C11.8249 1.528 11.9369 1.512 12.1129 1.488C12.2809 1.456 12.4929 1.42 12.7489 1.38C12.7329 1.236 12.7169 1.108 12.7009 0.995999C12.6849 0.883999 12.6689 0.783999 12.6529 0.696C12.6449 0.671999 12.6529 0.639999 12.6769 0.599999C12.7089 0.552 12.7569 0.52 12.8209 0.504C12.9169 0.472 13.0409 0.444 13.1929 0.42C13.3529 0.395999 13.5129 0.399999 13.6729 0.431999C13.8329 0.456 13.9889 0.52 14.1409 0.624C14.3009 0.72 14.4289 0.879999 14.5249 1.104C14.8929 1.048 15.2609 0.988 15.6289 0.924C16.0049 0.859999 16.3489 0.799999 16.6609 0.744C16.9809 0.68 17.2569 0.624 17.4889 0.576C17.7289 0.528 17.8969 0.488 17.9929 0.456ZM17.2372 6.276C17.2212 6.236 17.2012 6.2 17.1772 6.168C17.1612 6.128 17.1332 6.108 17.0932 6.108C17.3732 5.412 17.6452 4.632 17.9092 3.768C18.1732 2.896 18.3732 1.912 18.5092 0.816C19.0052 0.743999 19.3972 0.716 19.6852 0.732C19.9732 0.748 20.1852 0.804 20.3212 0.9C20.5532 0.891999 20.7652 0.939999 20.9572 1.044C21.1572 1.14 21.2772 1.324 21.3172 1.596C21.3412 1.788 21.3852 2.064 21.4492 2.424C21.5132 2.776 21.6012 3.192 21.7132 3.672C21.8252 4.144 21.9612 4.668 22.1212 5.244C22.2892 5.812 22.4932 6.412 22.7332 7.044C22.7332 7.044 22.7012 7.012 22.6372 6.948L22.5412 6.852L22.4572 6.984L22.3252 6.9L22.2172 6.84L22.0852 6.948C22.0772 6.924 22.0652 6.9 22.0492 6.876C22.0252 6.844 22.0012 6.796 21.9772 6.732C21.9612 6.756 21.9452 6.796 21.9292 6.852C21.9132 6.9 21.8932 6.952 21.8692 7.008C21.8372 7.072 21.8092 7.136 21.7852 7.2L21.6772 7.128C21.3652 7.04 21.0452 6.984 20.7172 6.96C20.3972 6.928 20.0772 6.916 19.7572 6.924C19.4452 6.932 19.1372 6.956 18.8332 6.996C18.5372 7.036 18.2612 7.08 18.0052 7.128C17.7252 7.176 17.5252 7.112 17.4052 6.936C17.2852 6.752 17.2292 6.532 17.2372 6.276ZM19.1692 5.184C19.4172 5.2 19.6612 5.228 19.9012 5.268C20.1492 5.308 20.3812 5.36 20.5972 5.424C20.4612 5.12 20.3332 4.816 20.2132 4.512C20.1012 4.208 19.9892 3.912 19.8772 3.624C19.7652 3.904 19.6492 4.172 19.5292 4.428C19.4172 4.684 19.2972 4.936 19.1692 5.184ZM22.6612 8.436C22.6852 8.476 22.7052 8.516 22.7212 8.556C22.7372 8.596 22.7412 8.624 22.7332 8.64C22.7252 8.664 22.7132 8.704 22.6972 8.76C22.6892 8.808 22.6772 8.86 22.6612 8.916C22.6372 8.98 22.6172 9.052 22.6012 9.132L22.4932 9.072C22.1732 9.024 21.7972 9.004 21.3652 9.012C20.9412 9.02 20.5092 9.044 20.0692 9.084C19.6372 9.132 19.2252 9.192 18.8332 9.264C18.4412 9.336 18.1212 9.412 17.8732 9.492C17.6652 9.564 17.4932 9.552 17.3572 9.456C17.2212 9.368 17.1212 9.236 17.0572 9.06C17.0012 8.884 16.9772 8.684 16.9852 8.46C17.0012 8.236 17.0532 8.028 17.1412 7.836C17.3492 7.716 17.6172 7.624 17.9452 7.56C18.2812 7.488 18.6412 7.444 19.0252 7.428C19.4092 7.412 19.7972 7.416 20.1892 7.44C20.5812 7.464 20.9412 7.508 21.2692 7.572C21.6052 7.628 21.8892 7.7 22.1212 7.788C22.3532 7.876 22.5012 7.972 22.5652 8.076C22.5732 8.084 22.5732 8.088 22.5652 8.088C22.5572 8.088 22.5492 8.084 22.5412 8.076C22.5252 8.076 22.5132 8.072 22.5052 8.064L22.6732 8.268L22.5652 8.292L22.6612 8.436Z" fill="url(#paint1_linear_249_1533)"/>
<defs>
<linearGradient id="paint0_linear_249_1533" x1="18.675" y1="12.9" x2="13.3536" y2="24.883" gradientUnits="userSpaceOnUse">
<stop stop-color="#FCBD38"/>
<stop offset="1" stop-color="#F7931E"/>
</linearGradient>
<linearGradient id="paint1_linear_249_1533" x1="19.15" y1="0.9" x2="14.3535" y2="13.4065" gradientUnits="userSpaceOnUse">
<stop stop-color="#FCBD38"/>
<stop offset="1" stop-color="#F7931E"/>
</linearGradient>
</defs>
</svg>
