<svg viewBox="0 0 819 1143" fill="none" xmlns="http://www.w3.org/2000/svg">
<g id="figjs3">
<g id="fignu3-shadow" filter="url(#filter0_f_1222_19645)">
<ellipse cx="397.5" cy="1034" rx="317.5" ry="30" fill="#464646" fill-opacity="0.4"/>
</g>
<g class="fignu3-card-verse" id="fignu3-card-verse">
<rect id="Rectangle 1018" width="529.684" height="336.005" rx="18.3409" transform="matrix(0.83147 0.55557 -0.285354 0.958422 125.88 67)" fill="url(#paint0_linear_1222_19645)"/>
<rect id="Rectangle 1019" width="529.684" height="78.7511" transform="matrix(0.83147 0.55557 -0.285354 0.958422 118.972 90.2032)" fill="#D6D6D6"/>
<rect id="Rectangle 1020" width="115.502" height="76.126" rx="38.063" transform="matrix(0.83147 0.55557 -0.285354 0.958422 93.208 235.69)" fill="url(#paint1_linear_1222_19645)"/>
<text id="9999 8888 7777 6666" transform="matrix(0.83147 0.55557 -0.285354 0.958422 66.4119 325.691)" fill="#FEFBFF" xml:space="preserve" style="white-space: pre" font-family="Sora" font-size="26.4108" letter-spacing="0.03em"><tspan x="0" y="27.4797">9999 8888 7777 6666</tspan></text>
<text id="gold" transform="matrix(0.83147 0.55557 -0.285354 0.958422 131.843 204.18)" fill="#F7F2FA" xml:space="preserve" style="white-space: pre" font-family="Sora" font-size="26.4108" font-weight="600" letter-spacing="0em"><tspan x="0" y="27.4797">gold</tspan></text>
<text id="01/23" transform="matrix(0.83147 0.55557 -0.285354 0.958422 79.6802 384.294)" fill="#FEFBFF" xml:space="preserve" style="white-space: pre" font-family="Sora" font-size="13.2054" letter-spacing="0em"><tspan x="0" y="13.4898">01/23</tspan></text>
<text id="01/38" transform="matrix(0.83147 0.55557 -0.285354 0.958422 141.9 425.868)" fill="#FEFBFF" xml:space="preserve" style="white-space: pre" font-family="Sora" font-size="13.2054" letter-spacing="0em"><tspan x="0" y="13.4898">01/38</tspan></text>
<text id="123" transform="matrix(0.83147 0.55557 -0.285354 0.958422 212.049 472.74)" fill="#FEFBFF" xml:space="preserve" style="white-space: pre" font-family="Sora" font-size="13.2054" letter-spacing="0em"><tspan x="0" y="13.4898">123</tspan></text>
<g id="Group 346">
<text id="cirrus." transform="matrix(0.83147 0.55557 -0.285354 0.958422 418.382 617.352)" fill="#FBF9FC" xml:space="preserve" style="white-space: pre" font-family="Sora" font-size="9.53725" font-weight="600" letter-spacing="0em"><tspan x="0" y="9.74266">cirrus.</tspan></text>
<circle id="Ellipse 7" cx="22.7427" cy="22.7427" r="22.7427" transform="matrix(0.83147 0.55557 -0.285354 0.958422 413.881 561.235)" fill="#0167B2"/>
<circle id="Ellipse 8" cx="22.7427" cy="22.7427" r="22.7427" transform="matrix(0.83147 0.55557 -0.285354 0.958422 437.061 576.723)" fill="#02A1E2"/>
<path id="Intersect" fill-rule="evenodd" clip-rule="evenodd" d="M432.705 620.515C438.377 619.533 443.131 615.212 445.224 608.18C447.318 601.148 446.288 592.963 442.986 585.984C437.313 586.967 432.56 591.288 430.466 598.319C428.373 605.351 429.403 613.536 432.705 620.515Z" fill="#207CBD"/>
</g>
<text id="member since" transform="matrix(0.83147 0.55557 -0.285354 0.958422 54.6523 370.1)" fill="#FEFBFF" xml:space="preserve" style="white-space: pre" font-family="Source Sans Pro" font-size="4.40181" letter-spacing="0.1em"><tspan x="0" y="4.56484">MEMBER&#10;</tspan><tspan x="0" y="10.5648">SINCE</tspan></text>
<text id="valid thru" transform="matrix(0.83147 0.55557 -0.285354 0.958422 122.972 415.749)" fill="#FEFBFF" xml:space="preserve" style="white-space: pre" font-family="Source Sans Pro" font-size="4.40181" letter-spacing="0.1em"><tspan x="0" y="4.56484">VALID&#10;</tspan><tspan x="0" y="10.5648">THRU</tspan></text>
<text id="security code" transform="matrix(0.83147 0.55557 -0.285354 0.958422 185.191 457.323)" fill="#FEFBFF" xml:space="preserve" style="white-space: pre" font-family="Source Sans Pro" font-size="4.40181" letter-spacing="0.1em"><tspan x="0" y="4.56484">SECURITY&#10;</tspan><tspan x="0" y="10.5648">CODE</tspan></text>
<path id="Vector" d="M282.942 330.431C282.831 330.804 282.596 331.076 282.288 331.187C281.981 331.298 281.627 331.238 281.303 331.022L273.983 326.131L270.706 327.313L274.055 316.063C274.166 315.69 274.401 315.418 274.709 315.308C275.016 315.197 275.37 315.256 275.694 315.472L284.234 321.178C284.557 321.395 284.824 321.75 284.974 322.167C285.124 322.583 285.146 323.027 285.035 323.4L282.942 330.431Z" stroke="#FEFBFF" stroke-width="0.733634" stroke-linecap="round" stroke-linejoin="round"/>
<g id="Group 347">
<path id="Vector_2" d="M267.403 360.513C270.772 362.764 274.44 361.441 275.596 357.558C276.753 353.674 274.959 348.702 271.59 346.45C268.221 344.199 264.553 345.523 263.397 349.406C262.24 353.289 264.034 358.262 267.403 360.513Z" stroke="#FEFBFF" stroke-width="0.733634" stroke-linecap="round" stroke-linejoin="round"/>
<path id="Vector_3" d="M268.349 350.186C268.632 349.812 269.034 349.605 269.481 349.602C269.929 349.598 270.395 349.799 270.795 350.168C271.196 350.536 271.507 351.05 271.671 351.617C271.836 352.184 271.845 352.768 271.696 353.266C271.277 354.672 269.238 354.152 269.238 354.152" stroke="#FEFBFF" stroke-width="0.733634" stroke-linecap="round" stroke-linejoin="round"/>
<path id="Vector_4" d="M268.45 356.998L268.456 357.002" stroke="#FEFBFF" stroke-width="0.733634" stroke-linecap="round" stroke-linejoin="round"/>
</g>
<text id="Est&#195;&#161; com d&#195;&#186;vidas? Nosso app pode te ajudar." transform="matrix(0.83147 0.55557 -0.285354 0.958422 294.64 323.073)" fill="#FEFBFF" xml:space="preserve" style="white-space: pre" font-family="Source Sans Pro" font-size="6.60271" letter-spacing="0em"><tspan x="0" y="7.34726">Est&#xe1; com d&#xfa;vidas?&#10;</tspan><tspan x="0" y="17.3473">Nosso app pode te ajudar.</tspan></text>
<text id="Fale com a gente: 0800 999 1111" transform="matrix(0.83147 0.55557 -0.285354 0.958422 285.847 352.605)" fill="#FEFBFF" xml:space="preserve" style="white-space: pre" font-family="Source Sans Pro" font-size="6.60271" letter-spacing="0em"><tspan x="0" y="7.34726">Fale com a gente:&#10;</tspan><tspan x="0" y="17.3473">0800 999 1111</tspan></text>
<circle id="Ellipse 170" cx="23.1095" cy="23.1095" r="23.1095" transform="matrix(0.83147 0.55557 -0.285354 0.958422 131.511 278.986)" fill="#D9D9D9"/>
<path id="Subtract" fill-rule="evenodd" clip-rule="evenodd" d="M134.078 262.998L124.856 256.836C107.377 245.157 88.3452 252.023 82.3466 272.17C76.348 292.318 85.6546 318.118 103.133 329.797L112.471 336.036C140.484 321.181 146.82 306.268 134.078 262.998Z" fill="url(#paint2_linear_1222_19645)"/>
</g>
<g class="fignu3-card-front" id="fignu3-card-front">
<rect id="Rectangle 1021" width="529.684" height="336.005" rx="18.3409" transform="matrix(0.760406 -0.649448 0.468701 0.883357 230 641.002)" fill="url(#paint3_linear_1222_19645)"/>
<text id="RAFAEL MARTINS" transform="matrix(0.760406 -0.649448 0.468701 0.883357 469.51 754.75)" fill="#FEFBFF" xml:space="preserve" style="white-space: pre" font-family="Sora" font-size="17.6072" font-weight="600" letter-spacing="0.1em"><tspan x="0" y="18.4865">RAFAEL MARTINS</tspan></text>
<circle id="Ellipse 171" cx="33.5641" cy="33.5641" r="33.5641" transform="matrix(0.760406 -0.649448 0.468701 0.883357 543.101 411.961)" fill="#E71924"/>
<circle id="Ellipse 172" cx="33.5641" cy="33.5641" r="33.5641" transform="matrix(0.760406 -0.649448 0.468701 0.883357 574.207 385.395)" fill="#F99F19"/>
<path id="Intersect_2" fill-rule="evenodd" clip-rule="evenodd" d="M612.32 429.922C615.507 419.323 614.896 407.472 609.816 397.897C604.735 388.322 596.311 383.145 587.372 382.902C584.185 393.501 584.796 405.352 589.876 414.927C594.957 424.502 603.381 429.68 612.32 429.922Z" fill="#F26520"/>
<g id="Group 348">
<rect id="Rectangle 344" x="0.966889" y="0.184007" width="71.8482" height="50.8706" rx="4.45774" transform="matrix(0.760406 -0.649448 0.468701 0.883357 327.751 704.374)" fill="url(#paint4_linear_1222_19645)" stroke="#211F21" stroke-width="1.57332"/>
<path id="Vector 9" d="M336.515 718.331L352.865 704.367" stroke="#211F21" stroke-width="1.46727" stroke-linecap="round"/>
<path id="Vector 10" d="M344.135 732.693L360.126 719.034" stroke="#211F21" stroke-width="1.46727" stroke-linecap="round"/>
<path id="Vector 11" d="M382.418 699.995L398.369 686.372" stroke="#211F21" stroke-width="1.46727" stroke-linecap="round"/>
<path id="Vector 12" d="M374.804 686.302L390.995 672.474" stroke="#211F21" stroke-width="1.46727" stroke-linecap="round"/>
<circle id="Ellipse 12" cx="1.57332" cy="1.57332" r="1.57332" transform="matrix(0.760406 -0.649448 0.468701 0.883357 357.52 686.927)" fill="#211F21"/>
<g id="Vector 13">
<path d="M429.669 664.301C428.06 653.213 425.826 648.085 417.917 642.151C417.077 641.522 417.015 640.453 417.332 639.958C417.649 639.463 418.348 639.09 419.22 639.692C428.07 645.803 430.634 651.278 432.201 663.612C432.294 664.879 431.609 665.633 430.974 665.669C430.232 665.711 429.805 665.238 429.669 664.301Z" fill="#FEFBFF"/>
<path d="M414.098 646.423C413.822 646.995 414.033 648.091 415.005 648.678C421.128 652.871 422.986 656.673 423.977 665.587C424.055 666.504 424.626 667.104 425.236 666.868C425.957 666.588 426.218 665.65 426.14 664.749C425.306 655.089 423.208 650.921 416.185 645.987C415.536 645.531 414.512 645.564 414.098 646.423Z" fill="#FEFBFF"/>
<path d="M411.708 652.84C411.233 653.582 411.535 654.442 412.292 655.033C416.232 658.11 417.801 660.381 418.315 666.384C418.366 667.462 418.683 668.382 419.497 668.066C420.312 667.751 420.58 666.922 420.524 666.179C420 658.74 417.858 656.148 413.15 652.281C412.748 651.951 412.183 652.097 411.708 652.84Z" fill="#FEFBFF"/>
<path d="M408.504 658.269C408.152 659.243 408.439 660.018 409.534 660.756C411.838 662.335 412.543 663.726 412.852 667.01C412.965 668.478 413.483 669.837 414.403 669.388C415.324 668.938 415.503 668.306 415.261 666.635C414.475 662.365 413.554 660.357 410.591 657.833C409.855 657.151 409.056 657.125 408.504 658.269Z" fill="#FEFBFF"/>
</g>
<path id="Vector 14" d="M369.701 682.582C364.959 677.835 360.522 677.295 355.936 681.211C350.353 685.98 351.395 692.266 352.742 704.135C358.07 708.203 359.788 711.378 360.485 718.728C370.379 727.588 374.973 728.995 379.486 725.051C385.468 719.943 384.046 712.599 382.219 700.166C377.612 696.212 375.839 693.374 374.564 686.575" stroke="#211F21" stroke-width="1.46727" stroke-linecap="round"/>
</g>
<g id="logo-js">
<path id="Vector 484" d="M418.661 799.48L415.35 794.49C414.098 792.604 414.613 790.06 416.499 788.808L432.267 778.344C434.154 777.092 436.698 777.606 437.949 779.493L438.806 780.783C440.058 782.67 442.602 783.184 444.488 781.932L445.425 781.31C447.312 780.058 447.826 777.514 446.574 775.628L441.147 767.449C439.886 765.55 437.319 765.043 435.431 766.322L420.467 776.464C418.605 777.725 418.107 780.25 419.351 782.124L422.972 787.58C423.092 787.762 423.193 787.957 423.305 788.144C425.593 791.968 435.964 788.897 450.593 786.153C452.197 785.853 453.822 786.549 454.724 787.909L458.236 793.201C459.488 795.088 458.974 797.632 457.087 798.884L441.533 809.206C439.702 810.421 437.238 809.976 435.948 808.197L434.588 806.322C433.298 804.543 430.834 804.098 429.003 805.314L427.927 806.028C426.04 807.28 425.525 809.823 426.777 811.709C428.64 814.517 430.794 817.763 432.377 820.148C433.629 822.034 436.167 822.549 438.054 821.297C441.831 818.79 447.839 814.803 453.473 811.065C455.359 809.813 455.873 807.269 454.622 805.383L450.607 799.333C449.722 798 448.142 797.303 446.561 797.549L422.708 801.264C421.126 801.51 419.546 800.814 418.661 799.48Z" stroke="#FEFBFF" stroke-width="2.57113"/>
<path id="Vector 482" d="M402.033 833.704V833.704C400.278 834.869 399.8 837.237 400.965 838.992C403.275 842.474 405.396 845.669 406.901 847.938C408.153 849.824 410.695 850.336 412.582 849.084L420.228 844.01C422.115 842.758 422.629 840.214 421.377 838.327L399.431 805.256C398.179 803.37 398.694 800.826 400.58 799.574L402.93 798.015C404.816 796.763 407.36 797.277 408.612 799.164L425.637 824.819C426.889 826.706 426.375 829.25 424.488 830.502L415.782 836.279C413.896 837.531 411.352 837.016 410.1 835.13L409.244 833.839C407.992 831.953 405.448 831.439 403.561 832.69L402.033 833.704Z" stroke="#FEFBFF" stroke-width="2.57113"/>
</g>
</g>
</g>
<defs>
<filter id="filter0_f_1222_19645" x="13" y="937" width="769" height="194" filterUnits="userSpaceOnUse" color-interpolation-filters="sRGB">
<feFlood flood-opacity="0" result="BackgroundImageFix"/>
<feBlend mode="normal" in="SourceGraphic" in2="BackgroundImageFix" result="shape"/>
<feGaussianBlur stdDeviation="33.5" result="effect1_foregroundBlur_1222_19645"/>
</filter>
<linearGradient id="paint0_linear_1222_19645" x1="447.583" y1="45.3606" x2="259.777" y2="386.622" gradientUnits="userSpaceOnUse">
<stop stop-color="#FACC15"/>
<stop offset="1" stop-color="#CA8A04"/>
</linearGradient>
<linearGradient id="paint1_linear_1222_19645" x1="60.8916" y1="76.298" x2="92.8047" y2="4.4018" gradientUnits="userSpaceOnUse">
<stop stop-color="#F6F3F7"/>
<stop offset="1" stop-color="#D6D6D6"/>
</linearGradient>
<linearGradient id="paint2_linear_1222_19645" x1="135.776" y1="268.348" x2="82.8412" y2="300.869" gradientUnits="userSpaceOnUse">
<stop stop-color="#F5F5F5"/>
<stop offset="1" stop-color="#D6D6D6"/>
</linearGradient>
<linearGradient id="paint3_linear_1222_19645" x1="447.583" y1="45.3606" x2="259.777" y2="386.622" gradientUnits="userSpaceOnUse">
<stop stop-color="#FACC15"/>
<stop offset="1" stop-color="#CA8A04"/>
</linearGradient>
<linearGradient id="paint4_linear_1222_19645" x1="67.2386" y1="7.24643" x2="5.6133" y2="48.3299" gradientUnits="userSpaceOnUse">
<stop stop-color="#F4F4F4"/>
<stop offset="1" stop-color="#D6D6D6"/>
</linearGradient>
</defs>
</svg>
