<svg width="303" height="644" viewBox="0 0 303 644" fill="none" xmlns="http://www.w3.org/2000/svg">
<g id="fignu2-screen4">
<path id="Vector" d="M145.543 90.7359L151.444 96.6534L157.344 90.7359" stroke="#FBF9FC" stroke-width="0.986024" stroke-linecap="round" stroke-linejoin="round"/>
<rect id="Rectangle 427" x="20.7063" y="182.415" width="260.31" height="260.31" rx="4.93012" fill="#FEFBFF"/>
<text id="Fatura atual" fill="#54B9C7" xml:space="preserve" style="white-space: pre" font-family="Source Sans Pro" font-size="11.8323" letter-spacing="0em"><tspan x="35.5387" y="290.293">FATURA ATUAL </tspan></text>
<text id="Limite dispon&#195;&#173;vel" fill="#3C3B3D" xml:space="preserve" style="white-space: pre" font-family="Source Sans Pro" font-size="8.87422" letter-spacing="0em"><tspan x="35.5387" y="336.819">Limite dispon&#xed;vel</tspan></text>
<text id="Cart&#195;&#163;o de cr&#195;&#169;dito" fill="#3C3B3D" xml:space="preserve" style="white-space: pre" font-family="Source Sans Pro" font-size="11.8323" letter-spacing="0em"><tspan x="74.3083" y="209.523">Cart&#xe3;o de cr&#xe9;dito</tspan></text>
<g id="R$ 150,64">
<text fill="#54B9C7" xml:space="preserve" style="white-space: pre" font-family="Sora" font-size="23.6646" letter-spacing="0em"><tspan x="33.9232" y="318.287">R$</tspan><tspan x="114.3" y="318.287">,64</tspan></text>
<text fill="#54B9C7" xml:space="preserve" style="white-space: pre" font-family="Sora" font-size="23.6646" font-weight="bold" letter-spacing="0em"><tspan x="65.9305" y="318.287"> 150</tspan></text>
</g>
<text id="R$ 150,64_2" fill="#9EC249" xml:space="preserve" style="white-space: pre" font-family="Sora" font-size="8.87422" font-weight="bold" letter-spacing="0em"><tspan x="103.386" y="336.682">R$ 150,64</tspan></text>
<g id="Group 324">
<path id="Vector_2" d="M239.95 209.085C239.95 209.085 243.884 201.195 250.767 201.195C257.651 201.195 261.585 209.085 261.585 209.085C261.585 209.085 257.651 216.975 250.767 216.975C243.884 216.975 239.95 209.085 239.95 209.085Z" stroke="#3C3B3D" stroke-width="0.986024" stroke-linecap="round" stroke-linejoin="round"/>
<path id="Vector_3" d="M250.767 212.044C252.397 212.044 253.718 210.719 253.718 209.085C253.718 207.451 252.397 206.127 250.767 206.127C249.138 206.127 247.817 207.451 247.817 209.085C247.817 210.719 249.138 212.044 250.767 212.044Z" stroke="#3C3B3D" stroke-width="0.986024" stroke-linecap="round" stroke-linejoin="round"/>
</g>
<circle id="Ellipse 16" cx="136.071" cy="459.487" r="2.95807" fill="#FEF08A"/>
<circle id="Ellipse 17" cx="151.848" cy="459.487" r="2.95807" fill="#EDEAEF"/>
<circle id="Ellipse 18" cx="167.624" cy="459.487" r="2.95807" fill="#FEF08A"/>
<g id="Group 325">
<path id="Vector_4" d="M56.0539 198.237H38.3527C37.2664 198.237 36.3859 199.12 36.3859 200.209V212.044C36.3859 213.133 37.2664 214.017 38.3527 214.017H56.0539C57.1401 214.017 58.0207 213.133 58.0207 212.044V200.209C58.0207 199.12 57.1401 198.237 56.0539 198.237Z" stroke="#3C3B3D" stroke-width="0.986024" stroke-linecap="round" stroke-linejoin="round"/>
<path id="Vector_5" d="M36.3857 204.154H58.0206" stroke="#3C3B3D" stroke-width="0.986024" stroke-linecap="round" stroke-linejoin="round"/>
</g>
<path id="Rectangle 428" d="M276.087 182.415C278.809 182.415 281.017 184.622 281.017 187.345V244.534H276.087V182.415Z" fill="#F3AE3C"/>
<rect id="Rectangle 429" x="276.087" y="244.534" width="4.93012" height="62.1195" fill="#54B9C7"/>
<rect id="Rectangle 430" x="276.087" y="306.654" width="4.93012" height="88.7422" fill="#9EC249"/>
<path id="Rectangle 431" d="M20.7063 383.564H281.017V437.795C281.017 440.518 278.809 442.725 276.087 442.725H25.6364C22.9136 442.725 20.7063 440.518 20.7063 437.795V383.564Z" fill="#EDEAEF"/>
<text id="Transfer&#195;&#170;ncia de R$ 500,00 feita para Juliana ontem" fill="#3C3B3D" xml:space="preserve" style="white-space: pre" font-family="Source Sans Pro" font-size="8.87422" letter-spacing="0em"><tspan x="79.8678" y="411.453">Transfer&#xea;ncia de R$ 500,00 feita para Juliana&#10;</tspan><tspan x="79.8678" y="423.453">ontem</tspan></text>
<g id="Group 326">
<path id="Vector_6" d="M50.1533 409.293V420.142" stroke="#3C3B3D" stroke-width="0.986024" stroke-linecap="round" stroke-linejoin="round"/>
<path id="Vector_7" d="M52.6118 411.266H48.924C48.4676 411.266 48.0299 411.448 47.7071 411.771C47.3844 412.095 47.2031 412.534 47.2031 412.992C47.2031 413.449 47.3844 413.888 47.7071 414.212C48.0299 414.536 48.4676 414.718 48.924 414.718H51.3825C51.839 414.718 52.2767 414.899 52.5994 415.223C52.9222 415.547 53.1035 415.986 53.1035 416.444C53.1035 416.901 52.9222 417.34 52.5994 417.664C52.2767 417.988 51.839 418.169 51.3825 418.169H47.2031" stroke="#3C3B3D" stroke-width="0.986024" stroke-linecap="round" stroke-linejoin="round"/>
</g>
<path id="Vector_8" d="M50.1534 405.348C44.7222 405.348 40.3193 409.764 40.3193 415.211C40.3193 420.658 44.7222 425.073 50.1534 425.073C55.5845 425.073 59.9874 420.658 59.9874 415.211C59.9874 413.996 59.7685 412.833 59.3682 411.759" stroke="#3C3B3D" stroke-width="0.986024" stroke-linecap="round" stroke-linejoin="round"/>
<g id="Group 327">
<path id="Vector_9" d="M60.9707 406.334L57.0371 402.389L53.1035 406.334" stroke="#3C3B3D" stroke-width="0.986024" stroke-linecap="round" stroke-linejoin="round"/>
<path id="Vector_10" d="M57.037 410.279V402.389" stroke="#3C3B3D" stroke-width="0.986024" stroke-linecap="round" stroke-linejoin="round"/>
</g>
<path id="Vector_11" d="M258.635 420.142L264.535 414.224L258.635 408.307" stroke="#3C3B3D" stroke-width="0.986024" stroke-linecap="round" stroke-linejoin="round"/>
<g id="Group 328">
<g id="Group 32">
<rect id="Rectangle 421" x="241.576" y="10.0723" width="2.57108" height="3.30567" rx="0.986024" fill="white"/>
<rect id="Rectangle 422" x="245.249" y="8.60309" width="2.57108" height="4.77486" rx="0.986024" fill="white"/>
<rect id="Rectangle 423" x="248.922" y="6.7666" width="2.57108" height="6.61135" rx="0.986024" fill="white"/>
<rect id="Rectangle 424" x="252.595" y="4.93011" width="2.57108" height="8.44783" rx="0.986024" fill="white"/>
</g>
<g id="Group 34">
<path id="Vector 36" d="M290.877 11.2801V8.44037C291.666 8.91366 291.824 9.38695 291.824 9.86024C291.824 10.3335 291.666 10.8068 290.877 11.2801Z" fill="white" fill-opacity="0.5"/>
<rect id="Rectangle 413" x="275.416" y="6.2316" width="14.5143" height="7.25714" rx="1.57764" stroke="white" stroke-opacity="0.5" stroke-width="0.631056"/>
<rect id="Rectangle 414" x="276.363" y="7.17816" width="12.6211" height="5.36397" rx="0.946583" fill="#FBF9FC"/>
</g>
<g id="Group 33">
<path id="Subtract" fill-rule="evenodd" clip-rule="evenodd" d="M270.423 7.42997L269.239 8.61338C268.096 7.5515 266.564 6.9022 264.88 6.9022C263.189 6.9022 261.652 7.55664 260.507 8.62597L259.325 7.44383C260.68 5.90269 262.666 4.93011 264.88 4.93011C267.087 4.93011 269.068 5.89686 270.423 7.42997Z" fill="white"/>
<path id="Subtract_2" fill-rule="evenodd" clip-rule="evenodd" d="M269.549 11.5241C269.549 11.5239 269.549 11.5237 269.549 11.5235L269.548 11.5241L269.549 11.5241ZM262.532 10.9244L261.489 9.78607C262.43 8.85962 263.738 8.31141 265.162 8.3731C266.46 8.42939 267.62 8.98317 268.464 9.84258L267.31 10.9013C266.713 10.381 265.943 10.0519 265.091 10.0149C264.113 9.9726 263.21 10.3222 262.532 10.9244Z" fill="white"/>
<path id="Vector 37" d="M264.88 13.3113L263.401 11.8323C263.872 11.3847 264.222 11.1749 264.88 11.1749C265.537 11.1749 265.884 11.3429 266.359 11.8323L264.88 13.3113Z" fill="white"/>
</g>
<text id="22:31" fill="white" xml:space="preserve" style="white-space: pre" font-family="Cairo" font-size="12.8183" font-weight="bold" letter-spacing="0em"><tspan x="20.7063" y="13.6915">22:31</tspan></text>
</g>
<g id="Group 329">
<text id="Rafael Martins" fill="#FBF9FC" xml:space="preserve" style="white-space: pre" font-family="Sora" font-size="14.5386" font-weight="bold" letter-spacing="0em"><tspan x="107.424" y="67.9892">Rafael Martins</tspan></text>
<g id="logo-js">
<path id="Vector 484" d="M81.2303 58.1591L81.2303 55.5028C81.2303 54.4986 82.0443 53.6846 83.0485 53.6846H91.4422C92.4463 53.6846 93.2604 54.4986 93.2604 55.5028V56.1897C93.2604 57.1939 94.0744 58.0079 95.0786 58.0079H95.5775C96.5817 58.0079 97.3957 57.1939 97.3957 56.1897V51.8359C97.3957 50.8249 96.5709 50.008 95.5599 50.0178L87.5421 50.0957C86.5449 50.1054 85.7416 50.9165 85.7416 51.9138V54.8184C85.7416 54.915 85.731 55.0121 85.7265 55.1086C85.6342 57.0826 90.2201 58.4913 96.2995 61.0651C96.9659 61.3472 97.3957 62.0034 97.3957 62.7271V65.5443C97.3957 66.5485 96.5817 67.3625 95.5775 67.3625H87.2976C86.3229 67.3625 85.5216 66.5939 85.481 65.62L85.4382 64.5937C85.3977 63.6198 84.5963 62.8512 83.6216 62.8512H83.0485C82.0443 62.8512 81.2303 63.6645 81.2303 64.6687C81.2303 66.1633 81.2303 67.8916 81.2303 69.1609C81.2303 70.1651 82.0422 70.9779 83.0464 70.9779C85.0573 70.9779 88.2554 70.9779 91.2543 70.9779C92.2584 70.9779 93.0724 70.1638 93.0724 69.1597L93.0724 65.9394C93.0724 65.2296 92.6593 64.5847 92.0145 64.2878L82.2882 59.8107C81.6434 59.5139 81.2303 58.8689 81.2303 58.1591Z" stroke="white" stroke-width="1.5"/>
<path id="Vector 482" d="M66.6917 66.7293V66.7293C65.7574 66.7293 64.9999 67.4872 64.9999 68.4215C64.9999 70.2746 64.9999 71.9755 64.9999 73.1834C64.9999 74.1876 65.814 75 66.8181 75H70.8885C71.8927 75 72.7067 74.186 72.7067 73.1818V55.5776C72.7067 54.5734 73.5207 53.7594 74.5249 53.7594H75.7757C76.7799 53.7594 77.5939 54.5734 77.5939 55.5776V69.2345C77.5939 70.2386 76.7799 71.0526 75.7757 71.0526H71.1414C70.1373 71.0526 69.3232 70.2386 69.3232 69.2345V68.5475C69.3232 67.5434 68.5092 66.7293 67.5051 66.7293H66.6917Z" stroke="white" stroke-width="1.5"/>
</g>
</g>
<g id="component-menu" clip-path="url(#clip0_1180_776)">
<rect id="Rectangle 426" x="11.8349" y="519.897" width="82.0556" height="89.7483" rx="2.4231" fill="#FEF08A"/>
<text id="Transferir" fill="#353436" xml:space="preserve" style="white-space: pre" font-family="Source Sans Pro" font-size="11.8349" letter-spacing="0em"><tspan x="20.7111" y="599.669">Transferir</tspan></text>
<rect id="Rectangle 427_2" x="197.249" y="519.897" width="82.0556" height="89.7483" rx="2.4231" fill="#FEF08A"/>
<text id="Cobrar" fill="#353436" xml:space="preserve" style="white-space: pre" font-family="Source Sans Pro" font-size="11.8349" letter-spacing="0em"><tspan x="205.964" y="599.788">Cobrar</tspan></text>
<rect id="Rectangle 428_2" x="104.542" y="519.897" width="82.0556" height="89.7483" rx="2.4231" fill="#FEF08A"/>
<text id="Depositar" fill="#353436" xml:space="preserve" style="white-space: pre" font-family="Source Sans Pro" font-size="11.8349" letter-spacing="0em"><tspan x="113.418" y="599.669">Depositar </tspan></text>
<g id="Group 328_2">
<g id="Group 323">
<path id="Vector_12" d="M30.4854 534.691V545.54" stroke="#353436" stroke-width="0.807701" stroke-linecap="round" stroke-linejoin="round"/>
<path id="Vector_13" d="M32.9439 536.663H29.2562C28.7997 536.663 28.362 536.845 28.0393 537.169C27.7165 537.493 27.5352 537.932 27.5352 538.389C27.5352 538.847 27.7165 539.286 28.0393 539.61C28.362 539.933 28.7997 540.115 29.2562 540.115H31.7147C32.1711 540.115 32.6088 540.297 32.9316 540.621C33.2543 540.944 33.4356 541.383 33.4356 541.841C33.4356 542.299 33.2543 542.738 32.9316 543.062C32.6088 543.385 32.1711 543.567 31.7147 543.567H27.5352" stroke="#353436" stroke-width="0.807701" stroke-linecap="round" stroke-linejoin="round"/>
</g>
<path id="Vector_14" d="M30.4854 530.746C25.0542 530.746 20.6514 535.161 20.6514 540.608C20.6514 546.055 25.0542 550.471 30.4854 550.471C35.9166 550.471 40.3194 546.055 40.3194 540.608C40.3194 539.394 40.1006 538.231 39.7003 537.157" stroke="#353436" stroke-width="0.807701" stroke-linecap="round" stroke-linejoin="round"/>
<g id="Group 324_2">
<path id="Vector_15" d="M41.3028 531.732L37.3692 527.787L33.4356 531.732" stroke="#353436" stroke-width="0.807701" stroke-linecap="round" stroke-linejoin="round"/>
<path id="Vector_16" d="M37.3693 535.677V527.787" stroke="#353436" stroke-width="0.807701" stroke-linecap="round" stroke-linejoin="round"/>
</g>
</g>
<g id="Group 329_2">
<g id="Group 325_2">
<path id="Vector_17" d="M122.925 534.691V545.54" stroke="#353436" stroke-width="0.807701" stroke-linecap="round" stroke-linejoin="round"/>
<path id="Vector_18" d="M125.384 536.663H121.696C121.24 536.663 120.802 536.845 120.479 537.169C120.156 537.493 119.975 537.932 119.975 538.389C119.975 538.847 120.156 539.286 120.479 539.61C120.802 539.933 121.24 540.115 121.696 540.115H124.155C124.611 540.115 125.049 540.297 125.372 540.621C125.694 540.944 125.876 541.383 125.876 541.841C125.876 542.299 125.694 542.738 125.372 543.062C125.049 543.385 124.611 543.567 124.155 543.567H119.975" stroke="#353436" stroke-width="0.807701" stroke-linecap="round" stroke-linejoin="round"/>
</g>
<path id="Vector_19" d="M122.925 530.746C117.494 530.746 113.091 535.161 113.091 540.608C113.091 546.055 117.494 550.471 122.925 550.471C128.356 550.471 132.759 546.055 132.759 540.608C132.759 539.394 132.54 538.231 132.14 537.157" stroke="#353436" stroke-width="0.807701" stroke-linecap="round" stroke-linejoin="round"/>
<g id="Group 327_2">
<path id="Vector_20" d="M125.876 531.732L129.809 535.677L133.743 531.732" stroke="#353436" stroke-width="0.807701" stroke-linecap="round" stroke-linejoin="round"/>
<path id="Vector_21" d="M129.809 527.787V535.677" stroke="#353436" stroke-width="0.807701" stroke-linecap="round" stroke-linejoin="round"/>
</g>
</g>
<g id="Group 330">
<g id="Group 326_2">
<path id="Vector_22" d="M215.589 533.705V541.759" stroke="#353436" stroke-width="0.807701" stroke-linecap="round" stroke-linejoin="round"/>
<path id="Vector_23" d="M217.414 535.169H214.676C214.337 535.169 214.012 535.304 213.773 535.544C213.533 535.785 213.398 536.111 213.398 536.45C213.398 536.79 213.533 537.116 213.773 537.357C214.012 537.597 214.337 537.732 214.676 537.732H216.501C216.84 537.732 217.165 537.867 217.405 538.107C217.644 538.347 217.779 538.673 217.779 539.013C217.779 539.353 217.644 539.679 217.405 539.919C217.165 540.16 216.84 540.295 216.501 540.295H213.398" stroke="#353436" stroke-width="0.807701" stroke-linecap="round" stroke-linejoin="round"/>
</g>
<path id="Vector_24" d="M224.216 542.581C224.216 543.104 224.008 543.606 223.639 543.976C223.271 544.346 222.77 544.553 222.249 544.553H210.448L206.514 548.498V532.718C206.514 532.195 206.721 531.694 207.09 531.324C207.459 530.954 207.959 530.746 208.481 530.746H222.249C222.77 530.746 223.271 530.954 223.639 531.324C224.008 531.694 224.216 532.195 224.216 532.718V542.581Z" stroke="#353436" stroke-width="0.807701" stroke-linecap="round" stroke-linejoin="round"/>
</g>
<rect id="Rectangle 429_2" x="289.956" y="519.897" width="16.7662" height="89.7483" rx="2.4231" fill="#FEF08A"/>
</g>
<rect id="Rectangle 432" x="101.77" y="638.102" width="98.6245" height="4.93123" rx="2.46561" fill="#EDEAEF"/>
</g>
<defs>
<clipPath id="clip0_1180_776">
<rect width="302.888" height="89.6548" fill="white" transform="translate(0 519.897)"/>
</clipPath>
</defs>
</svg>
