<svg width="168" height="54" viewBox="0 0 168 54" fill="none" xmlns="http://www.w3.org/2000/svg">
<rect width="168" height="54" rx="16" fill="#161617"/>
<path fill-rule="evenodd" clip-rule="evenodd" d="M35.4104 17.2083C35.16 17.4664 35 17.82 35 18.2294V35.3578C35 35.8292 35.212 36.2265 35.53 36.4893L45.1107 26.9086L35.4104 17.2083ZM46.1512 27.9491L37.8501 36.2502L48.2634 30.0613L46.1512 27.9491ZM49.5687 29.2855L47.1917 26.9086L49.7129 24.3874L51.6331 25.5287C52.5927 26.099 52.5927 27.4882 51.6331 28.0586L49.5687 29.2855ZM46.1512 25.8681L37.2831 17L48.4077 23.6117L46.1512 25.8681Z" fill="url(#paint0_linear_3865_24094)"/>
<path d="M65.81 22V16.096H67.286C68.198 16.096 68.891 16.351 69.365 16.861C69.839 17.365 70.076 18.085 70.076 19.021C70.076 19.963 69.839 20.695 69.365 21.217C68.897 21.739 68.216 22 67.322 22H65.81ZM66.557 21.388H67.232C67.922 21.388 68.438 21.181 68.78 20.767C69.128 20.347 69.302 19.765 69.302 19.021C69.302 18.277 69.128 17.707 68.78 17.311C68.438 16.909 67.922 16.708 67.232 16.708H66.557V21.388ZM72.9761 22.108C72.6221 22.108 72.2891 22.018 71.9771 21.838C71.6711 21.658 71.4221 21.397 71.2301 21.055C71.0441 20.713 70.9511 20.302 70.9511 19.822C70.9511 19.33 71.0441 18.913 71.2301 18.571C71.4221 18.229 71.6711 17.968 71.9771 17.788C72.2891 17.608 72.6221 17.518 72.9761 17.518C73.3361 17.518 73.6691 17.608 73.9751 17.788C74.2811 17.968 74.5271 18.229 74.7131 18.571C74.9051 18.913 75.0011 19.33 75.0011 19.822C75.0011 20.302 74.9051 20.713 74.7131 21.055C74.5271 21.397 74.2811 21.658 73.9751 21.838C73.6691 22.018 73.3361 22.108 72.9761 22.108ZM72.9761 21.496C73.3541 21.496 73.6571 21.343 73.8851 21.037C74.1191 20.725 74.2361 20.32 74.2361 19.822C74.2361 19.318 74.1191 18.91 73.8851 18.598C73.6571 18.286 73.3541 18.13 72.9761 18.13C72.6041 18.13 72.3011 18.286 72.0671 18.598C71.8331 18.91 71.7161 19.318 71.7161 19.822C71.7161 20.32 71.8331 20.725 72.0671 21.037C72.3011 21.343 72.6041 21.496 72.9761 21.496ZM76.8109 22L75.5959 17.626H76.3519L76.9999 20.155C77.0479 20.359 77.0929 20.563 77.1349 20.767C77.1769 20.965 77.2189 21.166 77.2609 21.37H77.2969C77.3449 21.166 77.3929 20.965 77.4409 20.767C77.4889 20.563 77.5399 20.359 77.5939 20.155L78.2689 17.626H78.9889L79.6729 20.155C79.7269 20.359 79.7779 20.563 79.8259 20.767C79.8799 20.965 79.9309 21.166 79.9789 21.37H80.0149C80.0629 21.166 80.1079 20.965 80.1499 20.767C80.1979 20.563 80.2429 20.359 80.2849 20.155L80.9239 17.626H81.6259L80.4559 22H79.5559L78.9259 19.651C78.8719 19.441 78.8209 19.234 78.7729 19.03C78.7309 18.826 78.6829 18.613 78.6289 18.391H78.5929C78.5449 18.613 78.4969 18.829 78.4489 19.039C78.4009 19.243 78.3469 19.45 78.2869 19.66L77.6749 22H76.8109ZM82.5778 22V17.626H83.1898L83.2528 18.256H83.2798C83.4898 18.046 83.7118 17.872 83.9458 17.734C84.1798 17.59 84.4468 17.518 84.7468 17.518C85.2088 17.518 85.5448 17.665 85.7548 17.959C85.9708 18.247 86.0788 18.67 86.0788 19.228V22H85.3408V19.327C85.3408 18.919 85.2748 18.622 85.1428 18.436C85.0108 18.25 84.8008 18.157 84.5128 18.157C84.2908 18.157 84.0898 18.214 83.9098 18.328C83.7358 18.442 83.5378 18.61 83.3158 18.832V22H82.5778ZM88.2827 22.108C88.0067 22.108 87.8057 22.024 87.6797 21.856C87.5597 21.682 87.4997 21.436 87.4997 21.118V15.592H88.2377V21.172C88.2377 21.286 88.2587 21.37 88.3007 21.424C88.3427 21.472 88.3907 21.496 88.4447 21.496C88.4687 21.496 88.4897 21.496 88.5077 21.496C88.5317 21.49 88.5647 21.484 88.6067 21.478L88.7057 22.036C88.6577 22.06 88.6007 22.078 88.5347 22.09C88.4687 22.102 88.3847 22.108 88.2827 22.108ZM91.4947 22.108C91.1407 22.108 90.8077 22.018 90.4957 21.838C90.1897 21.658 89.9407 21.397 89.7487 21.055C89.5627 20.713 89.4697 20.302 89.4697 19.822C89.4697 19.33 89.5627 18.913 89.7487 18.571C89.9407 18.229 90.1897 17.968 90.4957 17.788C90.8077 17.608 91.1407 17.518 91.4947 17.518C91.8547 17.518 92.1877 17.608 92.4937 17.788C92.7997 17.968 93.0457 18.229 93.2317 18.571C93.4237 18.913 93.5197 19.33 93.5197 19.822C93.5197 20.302 93.4237 20.713 93.2317 21.055C93.0457 21.397 92.7997 21.658 92.4937 21.838C92.1877 22.018 91.8547 22.108 91.4947 22.108ZM91.4947 21.496C91.8727 21.496 92.1757 21.343 92.4037 21.037C92.6377 20.725 92.7547 20.32 92.7547 19.822C92.7547 19.318 92.6377 18.91 92.4037 18.598C92.1757 18.286 91.8727 18.13 91.4947 18.13C91.1227 18.13 90.8197 18.286 90.5857 18.598C90.3517 18.91 90.2347 19.318 90.2347 19.822C90.2347 20.32 90.3517 20.725 90.5857 21.037C90.8197 21.343 91.1227 21.496 91.4947 21.496ZM95.5565 22.108C95.1905 22.108 94.8845 22 94.6385 21.784C94.3985 21.562 94.2785 21.256 94.2785 20.866C94.2785 20.386 94.4915 20.02 94.9175 19.768C95.3495 19.51 96.0305 19.33 96.9605 19.228C96.9605 19.042 96.9335 18.865 96.8795 18.697C96.8315 18.529 96.7415 18.394 96.6095 18.292C96.4835 18.184 96.3005 18.13 96.0605 18.13C95.8085 18.13 95.5715 18.178 95.3495 18.274C95.1275 18.37 94.9295 18.478 94.7555 18.598L94.4675 18.085C94.6715 17.953 94.9205 17.827 95.2145 17.707C95.5145 17.581 95.8385 17.518 96.1865 17.518C96.7205 17.518 97.1075 17.683 97.3475 18.013C97.5875 18.337 97.7075 18.772 97.7075 19.318V22H97.0955L97.0325 21.478H97.0055C96.8015 21.646 96.5765 21.793 96.3305 21.919C96.0905 22.045 95.8325 22.108 95.5565 22.108ZM95.7725 21.514C95.9825 21.514 96.1805 21.463 96.3665 21.361C96.5525 21.259 96.7505 21.115 96.9605 20.929V19.714C96.2345 19.804 95.7245 19.939 95.4305 20.119C95.1425 20.299 94.9985 20.53 94.9985 20.812C94.9985 21.058 95.0735 21.238 95.2235 21.352C95.3735 21.46 95.5565 21.514 95.7725 21.514ZM100.578 22.108C100.032 22.108 99.5937 21.91 99.2637 21.514C98.9337 21.112 98.7687 20.548 98.7687 19.822C98.7687 19.348 98.8557 18.94 99.0297 18.598C99.2097 18.25 99.4437 17.983 99.7317 17.797C100.026 17.611 100.338 17.518 100.668 17.518C100.92 17.518 101.139 17.563 101.325 17.653C101.511 17.743 101.7 17.866 101.892 18.022L101.856 17.275V15.592H102.603V22H101.991L101.928 21.487H101.901C101.733 21.655 101.535 21.802 101.307 21.928C101.079 22.048 100.836 22.108 100.578 22.108ZM100.74 21.487C101.124 21.487 101.496 21.286 101.856 20.884V18.598C101.67 18.43 101.49 18.313 101.316 18.247C101.148 18.175 100.974 18.139 100.794 18.139C100.56 18.139 100.347 18.211 100.155 18.355C99.9687 18.493 99.8187 18.688 99.7047 18.94C99.5907 19.186 99.5337 19.477 99.5337 19.813C99.5337 20.335 99.6387 20.746 99.8487 21.046C100.059 21.34 100.356 21.487 100.74 21.487ZM106.823 22L105.248 17.626H106.013L106.841 20.11C106.907 20.326 106.973 20.542 107.039 20.758C107.111 20.974 107.18 21.187 107.246 21.397H107.282C107.348 21.187 107.414 20.974 107.48 20.758C107.552 20.542 107.618 20.326 107.678 20.11L108.506 17.626H109.235L107.687 22H106.823ZM110.079 22V17.626H110.817V22H110.079ZM110.457 16.726C110.313 16.726 110.193 16.684 110.097 16.6C110.007 16.51 109.962 16.39 109.962 16.24C109.962 16.096 110.007 15.979 110.097 15.889C110.193 15.799 110.313 15.754 110.457 15.754C110.601 15.754 110.718 15.799 110.808 15.889C110.904 15.979 110.952 16.096 110.952 16.24C110.952 16.39 110.904 16.51 110.808 16.6C110.718 16.684 110.601 16.726 110.457 16.726ZM113.302 22.108C112.936 22.108 112.63 22 112.384 21.784C112.144 21.562 112.024 21.256 112.024 20.866C112.024 20.386 112.237 20.02 112.663 19.768C113.095 19.51 113.776 19.33 114.706 19.228C114.706 19.042 114.679 18.865 114.625 18.697C114.577 18.529 114.487 18.394 114.355 18.292C114.229 18.184 114.046 18.13 113.806 18.13C113.554 18.13 113.317 18.178 113.095 18.274C112.873 18.37 112.675 18.478 112.501 18.598L112.213 18.085C112.417 17.953 112.666 17.827 112.96 17.707C113.26 17.581 113.584 17.518 113.932 17.518C114.466 17.518 114.853 17.683 115.093 18.013C115.333 18.337 115.453 18.772 115.453 19.318V22H114.841L114.778 21.478H114.751C114.547 21.646 114.322 21.793 114.076 21.919C113.836 22.045 113.578 22.108 113.302 22.108ZM113.518 21.514C113.728 21.514 113.926 21.463 114.112 21.361C114.298 21.259 114.496 21.115 114.706 20.929V19.714C113.98 19.804 113.47 19.939 113.176 20.119C112.888 20.299 112.744 20.53 112.744 20.812C112.744 21.058 112.819 21.238 112.969 21.352C113.119 21.46 113.302 21.514 113.518 21.514Z" fill="#F7F2FA"/>
<path d="M70.745 37.156C69.9737 37.156 69.2717 36.9913 68.639 36.662C68.015 36.3327 67.5167 35.8473 67.144 35.206C66.78 34.556 66.598 33.7587 66.598 32.814C66.598 31.878 66.7843 31.0807 67.157 30.422C67.5383 29.7547 68.041 29.2477 68.665 28.901C69.289 28.5457 69.978 28.368 70.732 28.368C71.3473 28.368 71.876 28.4807 72.318 28.706C72.76 28.9313 73.1197 29.187 73.397 29.473L72.396 30.695C72.1793 30.5043 71.9497 30.344 71.707 30.214C71.4643 30.084 71.161 30.019 70.797 30.019C70.1383 30.019 69.601 30.2617 69.185 30.747C68.769 31.2323 68.561 31.8997 68.561 32.749C68.561 33.6157 68.7603 34.2917 69.159 34.777C69.5577 35.2623 70.1513 35.505 70.94 35.505C71.1133 35.505 71.2823 35.4833 71.447 35.44C71.6117 35.3967 71.746 35.3317 71.85 35.245V33.789H70.446V32.229H73.54V36.129C73.2453 36.415 72.851 36.6577 72.357 36.857C71.8717 37.0563 71.3343 37.156 70.745 37.156ZM77.904 37.156C77.358 37.156 76.8424 37.026 76.357 36.766C75.8804 36.4973 75.4947 36.1117 75.2 35.609C74.9054 35.0977 74.758 34.4867 74.758 33.776C74.758 33.0567 74.9054 32.4457 75.2 31.943C75.4947 31.4403 75.8804 31.059 76.357 30.799C76.8424 30.5303 77.358 30.396 77.904 30.396C78.45 30.396 78.9614 30.5303 79.438 30.799C79.9147 31.059 80.3004 31.4403 80.595 31.943C80.8897 32.4457 81.037 33.0567 81.037 33.776C81.037 34.4867 80.8897 35.0977 80.595 35.609C80.3004 36.1117 79.9147 36.4973 79.438 36.766C78.9614 37.026 78.45 37.156 77.904 37.156ZM77.904 35.609C78.294 35.609 78.5887 35.4443 78.788 35.115C78.9874 34.777 79.087 34.3307 79.087 33.776C79.087 33.2127 78.9874 32.7663 78.788 32.437C78.5887 32.1077 78.294 31.943 77.904 31.943C77.5054 31.943 77.2064 32.1077 77.007 32.437C76.8164 32.7663 76.721 33.2127 76.721 33.776C76.721 34.3307 76.8164 34.777 77.007 35.115C77.2064 35.4443 77.5054 35.609 77.904 35.609ZM85.115 37.156C84.569 37.156 84.0533 37.026 83.568 36.766C83.0913 36.4973 82.7056 36.1117 82.411 35.609C82.1163 35.0977 81.969 34.4867 81.969 33.776C81.969 33.0567 82.1163 32.4457 82.411 31.943C82.7056 31.4403 83.0913 31.059 83.568 30.799C84.0533 30.5303 84.569 30.396 85.115 30.396C85.661 30.396 86.1723 30.5303 86.649 30.799C87.1256 31.059 87.5113 31.4403 87.806 31.943C88.1006 32.4457 88.248 33.0567 88.248 33.776C88.248 34.4867 88.1006 35.0977 87.806 35.609C87.5113 36.1117 87.1256 36.4973 86.649 36.766C86.1723 37.026 85.661 37.156 85.115 37.156ZM85.115 35.609C85.505 35.609 85.7996 35.4443 85.999 35.115C86.1983 34.777 86.298 34.3307 86.298 33.776C86.298 33.2127 86.1983 32.7663 85.999 32.437C85.7996 32.1077 85.505 31.943 85.115 31.943C84.7163 31.943 84.4173 32.1077 84.218 32.437C84.0273 32.7663 83.932 33.2127 83.932 33.776C83.932 34.3307 84.0273 34.777 84.218 35.115C84.4173 35.4443 84.7163 35.609 85.115 35.609ZM91.8579 39.743C91.3552 39.743 90.9002 39.6867 90.4929 39.574C90.0856 39.4613 89.7606 39.2837 89.5179 39.041C89.2752 38.7983 89.1539 38.4863 89.1539 38.105C89.1539 37.585 89.4616 37.1517 90.0769 36.805V36.753C89.9122 36.6403 89.7692 36.4973 89.6479 36.324C89.5352 36.1507 89.4789 35.9297 89.4789 35.661C89.4789 35.427 89.5482 35.2017 89.6869 34.985C89.8256 34.7683 89.9989 34.5907 90.2069 34.452V34.4C89.9816 34.244 89.7779 34.0187 89.5959 33.724C89.4226 33.4293 89.3359 33.0957 89.3359 32.723C89.3359 32.203 89.4616 31.774 89.7129 31.436C89.9642 31.0893 90.2936 30.8293 90.7009 30.656C91.1082 30.4827 91.5416 30.396 92.0009 30.396C92.3822 30.396 92.7159 30.448 93.0019 30.552H95.3549V31.943H94.3279C94.3886 32.0383 94.4362 32.1597 94.4709 32.307C94.5142 32.4543 94.5359 32.6147 94.5359 32.788C94.5359 33.282 94.4232 33.6893 94.1979 34.01C93.9726 34.3307 93.6692 34.569 93.2879 34.725C92.9066 34.881 92.4776 34.959 92.0009 34.959C91.7496 34.959 91.4896 34.9157 91.2209 34.829C91.0649 34.959 90.9869 35.1193 90.9869 35.31C90.9869 35.4747 91.0606 35.596 91.2079 35.674C91.3552 35.752 91.6066 35.791 91.9619 35.791H93.0019C93.7992 35.791 94.4059 35.921 94.8219 36.181C95.2466 36.4323 95.4589 36.8483 95.4589 37.429C95.4589 37.871 95.3116 38.2653 95.0169 38.612C94.7222 38.9673 94.3062 39.2447 93.7689 39.444C93.2316 39.6433 92.5946 39.743 91.8579 39.743ZM92.0009 33.802C92.2522 33.802 92.4602 33.711 92.6249 33.529C92.7982 33.347 92.8849 33.0783 92.8849 32.723C92.8849 32.385 92.7982 32.1293 92.6249 31.956C92.4602 31.774 92.2522 31.683 92.0009 31.683C91.7496 31.683 91.5372 31.7697 91.3639 31.943C91.1992 32.1163 91.1169 32.3763 91.1169 32.723C91.1169 33.0783 91.1992 33.347 91.3639 33.529C91.5372 33.711 91.7496 33.802 92.0009 33.802ZM92.1569 38.547C92.5902 38.547 92.9456 38.469 93.2229 38.313C93.5002 38.157 93.6389 37.9707 93.6389 37.754C93.6389 37.5547 93.5522 37.4203 93.3789 37.351C93.2142 37.2817 92.9716 37.247 92.6509 37.247H91.9879C91.7712 37.247 91.5892 37.2383 91.4419 37.221C91.3032 37.2123 91.1819 37.195 91.0779 37.169C90.8439 37.377 90.7269 37.5893 90.7269 37.806C90.7269 38.0487 90.8569 38.2307 91.1169 38.352C91.3856 38.482 91.7322 38.547 92.1569 38.547ZM98.2563 37.156C97.5976 37.156 97.1383 36.961 96.8783 36.571C96.6269 36.1723 96.5013 35.648 96.5013 34.998V27.887H98.4123V35.076C98.4123 35.2753 98.4469 35.414 98.5163 35.492C98.5943 35.57 98.6723 35.609 98.7503 35.609C98.7936 35.609 98.8283 35.609 98.8543 35.609C98.8889 35.6003 98.9323 35.5917 98.9843 35.583L99.2183 37C99.1143 37.0433 98.9799 37.078 98.8153 37.104C98.6593 37.1387 98.4729 37.156 98.2563 37.156ZM103.107 37.156C102.492 37.156 101.937 37.0217 101.443 36.753C100.949 36.4843 100.559 36.0987 100.273 35.596C99.987 35.0933 99.844 34.4867 99.844 33.776C99.844 33.074 99.987 32.4717 100.273 31.969C100.568 31.4663 100.949 31.0807 101.417 30.812C101.885 30.5347 102.375 30.396 102.886 30.396C103.501 30.396 104.008 30.5347 104.407 30.812C104.814 31.0807 105.118 31.449 105.317 31.917C105.525 32.3763 105.629 32.9007 105.629 33.49C105.629 33.6547 105.62 33.8193 105.603 33.984C105.586 34.14 105.568 34.257 105.551 34.335H101.69C101.777 34.803 101.972 35.1497 102.275 35.375C102.578 35.5917 102.942 35.7 103.367 35.7C103.826 35.7 104.29 35.557 104.758 35.271L105.395 36.428C105.066 36.6533 104.697 36.831 104.29 36.961C103.883 37.091 103.488 37.156 103.107 37.156ZM101.677 33.074H104.004C104.004 32.7187 103.917 32.4283 103.744 32.203C103.579 31.969 103.306 31.852 102.925 31.852C102.63 31.852 102.366 31.956 102.132 32.164C101.898 32.3633 101.746 32.6667 101.677 33.074ZM109.708 37V28.524H112.62C113.244 28.524 113.807 28.6107 114.31 28.784C114.821 28.9487 115.229 29.2303 115.532 29.629C115.835 30.0277 115.987 30.5693 115.987 31.254C115.987 31.9127 115.835 32.4543 115.532 32.879C115.229 33.3037 114.826 33.62 114.323 33.828C113.82 34.0273 113.27 34.127 112.672 34.127H111.619V37H109.708ZM111.619 32.606H112.555C113.595 32.606 114.115 32.1553 114.115 31.254C114.115 30.812 113.976 30.5 113.699 30.318C113.422 30.136 113.023 30.045 112.503 30.045H111.619V32.606ZM119.051 37.156C118.393 37.156 117.933 36.961 117.673 36.571C117.422 36.1723 117.296 35.648 117.296 34.998V27.887H119.207V35.076C119.207 35.2753 119.242 35.414 119.311 35.492C119.389 35.57 119.467 35.609 119.545 35.609C119.589 35.609 119.623 35.609 119.649 35.609C119.684 35.6003 119.727 35.5917 119.779 35.583L120.013 37C119.909 37.0433 119.775 37.078 119.61 37.104C119.454 37.1387 119.268 37.156 119.051 37.156ZM122.641 37.156C122.052 37.156 121.584 36.9697 121.237 36.597C120.89 36.2157 120.717 35.752 120.717 35.206C120.717 34.53 121.003 34.0013 121.575 33.62C122.147 33.2387 123.07 32.983 124.344 32.853C124.327 32.567 124.24 32.3417 124.084 32.177C123.937 32.0037 123.685 31.917 123.33 31.917C123.061 31.917 122.788 31.969 122.511 32.073C122.234 32.177 121.939 32.32 121.627 32.502L120.938 31.241C121.345 30.9897 121.779 30.786 122.238 30.63C122.706 30.474 123.191 30.396 123.694 30.396C124.517 30.396 125.15 30.6343 125.592 31.111C126.034 31.5877 126.255 32.32 126.255 33.308V37H124.695L124.565 36.337H124.513C124.244 36.5797 123.954 36.779 123.642 36.935C123.339 37.0823 123.005 37.156 122.641 37.156ZM123.291 35.674C123.508 35.674 123.694 35.6263 123.85 35.531C124.015 35.427 124.179 35.2927 124.344 35.128V33.997C123.668 34.0837 123.2 34.2223 122.94 34.413C122.68 34.595 122.55 34.8117 122.55 35.063C122.55 35.271 122.615 35.427 122.745 35.531C122.884 35.6263 123.066 35.674 123.291 35.674ZM128.586 39.522C128.396 39.522 128.227 39.509 128.079 39.483C127.941 39.457 127.806 39.4267 127.676 39.392L128.014 37.936C128.075 37.9447 128.144 37.9577 128.222 37.975C128.3 38.001 128.374 38.014 128.443 38.014C128.764 38.014 129.011 37.936 129.184 37.78C129.358 37.624 129.488 37.4203 129.574 37.169L129.665 36.831L127.182 30.552H129.106L130.029 33.321C130.125 33.6157 130.211 33.9147 130.289 34.218C130.367 34.5213 130.45 34.8333 130.536 35.154H130.588C130.658 34.8507 130.727 34.5473 130.796 34.244C130.874 33.932 130.952 33.6243 131.03 33.321L131.81 30.552H133.643L131.407 37.065C131.208 37.6023 130.987 38.053 130.744 38.417C130.502 38.7897 130.207 39.067 129.86 39.249C129.522 39.431 129.098 39.522 128.586 39.522Z" fill="#F7F2FA"/>
<defs>
<linearGradient id="paint0_linear_3865_24094" x1="49.6631" y1="19.6311" x2="36.7729" y2="32.8604" gradientUnits="userSpaceOnUse">
<stop stop-color="#FACC15"/>
<stop offset="1" stop-color="#CA8A04"/>
</linearGradient>
</defs>
</svg>
