<svg width="18" height="20" viewBox="0 0 18 20" fill="none" xmlns="http://www.w3.org/2000/svg">
<path d="M17 19V17C17 15.9391 16.5786 14.9217 15.8284 14.1716C15.0783 13.4214 14.0609 13 13 13H5C3.93913 13 2.92172 13.4214 2.17157 14.1716C1.42143 14.9217 1 15.9391 1 17V19" stroke="url(#paint0_linear_1009_76)" stroke-width="2" stroke-linecap="round" stroke-linejoin="round"/>
<path d="M9 9C11.2091 9 13 7.20914 13 5C13 2.79086 11.2091 1 9 1C6.79086 1 5 2.79086 5 5C5 7.20914 6.79086 9 9 9Z" stroke="url(#paint1_linear_1009_76)" stroke-width="2" stroke-linecap="round" stroke-linejoin="round"/>
<defs>
<linearGradient id="paint0_linear_1009_76" x1="14.52" y1="13.81" x2="12.1843" y2="20.9896" gradientUnits="userSpaceOnUse">
<stop stop-color="#FACC15"/>
<stop offset="1" stop-color="#CA8A04"/>
</linearGradient>
<linearGradient id="paint1_linear_1009_76" x1="11.76" y1="2.08" x2="6.52" y2="8.12" gradientUnits="userSpaceOnUse">
<stop stop-color="#FACC15"/>
<stop offset="1" stop-color="#CA8A04"/>
</linearGradient>
</defs>
</svg>
