<svg width="722" height="458" viewBox="0 0 722 458" fill="none" xmlns="http://www.w3.org/2000/svg">
<g clip-path="url(#clip0_609_104)">
<g filter="url(#filter0_i_609_104)">
<rect width="722" height="458" rx="25" fill="url(#paint0_linear_609_104)"/>
</g>
<text fill="#FEFBFF" xml:space="preserve" style="white-space: pre" font-family="Sora" font-size="24" font-weight="600" letter-spacing="0.1em"><tspan x="221" y="363.16">RAFAEL MARTINS</tspan></text>
<circle cx="581.889" cy="86.4971" r="45.7505" fill="#E71924"/>
<circle cx="637.647" cy="86.4971" r="45.7505" fill="#F99F19"/>
<path fill-rule="evenodd" clip-rule="evenodd" d="M609.768 122.595C620.636 114.23 627.64 101.092 627.64 86.3172C627.64 71.5427 620.636 58.404 609.768 50.0396C598.9 58.404 591.897 71.5427 591.897 86.3172C591.897 101.092 598.9 114.23 609.768 122.595Z" fill="#F26520"/>
<rect x="80.4209" y="156.195" width="97.9347" height="69.3406" rx="6.07624" fill="url(#paint1_linear_609_104)" stroke="#211F21" stroke-width="2.14455"/>
<path d="M80.7783 178.713H110.087" stroke="#211F21" stroke-width="2" stroke-linecap="round"/>
<path d="M80.7783 200.873H109.445" stroke="#211F21" stroke-width="2" stroke-linecap="round"/>
<path d="M149.404 200.873H177.998" stroke="#211F21" stroke-width="2" stroke-linecap="round"/>
<path d="M148.975 179.428H177.998" stroke="#211F21" stroke-width="2" stroke-linecap="round"/>
<circle cx="129.388" cy="166.561" r="2.14455" fill="#211F21"/>
<path d="M231.053 205.824C236.325 192.59 236.926 185.119 231.053 171.645C230.43 170.215 231.053 169.024 231.768 168.786C232.483 168.547 233.589 168.786 234.27 170.215C241.188 184.73 240.767 192.87 234.627 207.387C233.912 208.817 232.575 208.998 231.768 208.46C230.824 207.831 230.608 206.941 231.053 205.824Z" fill="#FEFBFF"/>
<path d="M223.547 172.717C222.832 173.075 222.375 174.43 223.19 175.934C227.999 185.94 227.801 191.662 223.19 202.026C222.686 203.071 222.998 204.226 223.905 204.528C224.977 204.886 225.913 204.125 226.406 203.098C231.701 192.084 231.84 185.756 226.406 174.147C225.905 173.075 224.619 172.181 223.547 172.717Z" fill="#FEFBFF"/>
<path d="M216.399 177.364C215.326 177.721 215.136 178.908 215.684 180.223C218.53 187.063 218.979 190.898 215.684 197.737C215.041 198.929 214.83 200.193 216.041 200.596C217.252 201 218.126 200.363 218.543 199.524C222.766 191.149 221.82 186.454 218.543 178.079C218.263 177.364 217.471 177.006 216.399 177.364Z" fill="#FEFBFF"/>
<path d="M208.893 180.223C207.82 180.938 207.668 182.022 208.535 183.797C210.344 187.564 210.303 189.68 208.535 193.448C207.713 195.11 207.463 197.022 208.893 197.38C210.322 197.737 210.957 197.229 211.752 195.235C213.578 189.987 213.756 187.02 211.752 181.653C211.291 180.261 210.322 179.508 208.893 180.223Z" fill="#FEFBFF"/>
<path d="M145.115 170.849C142.372 161.508 137.251 156.91 129.03 156.91C119.023 156.91 116.194 164.53 110.087 178.355C113.998 187.507 114.039 192.437 110.087 200.873C116.494 219.254 121.24 224.915 129.388 224.821C140.111 224.821 143.163 215.733 149.046 200.873C145.952 192.497 145.622 187.875 148.5 179.5" stroke="#211F21" stroke-width="2" stroke-linecap="round"/>
<path d="M129.691 338.409L129.691 328.054C129.691 325.845 131.482 324.054 133.691 324.054H161.781C163.99 324.054 165.781 325.845 165.781 328.054V333.024C165.781 335.233 167.572 337.024 169.781 337.024H174.187C176.396 337.024 178.187 335.233 178.187 333.024V317.039C178.187 314.815 176.373 313.018 174.148 313.039L147.186 313.301C144.992 313.322 143.225 315.107 143.225 317.301V327.571C143.225 327.784 143.203 327.999 143.187 328.21C142.717 334.288 156.984 338.558 175.776 346.568C177.24 347.192 178.187 348.636 178.187 350.228V361.087C178.187 363.297 176.396 365.088 174.187 365.088H146.498C144.353 365.088 142.59 363.397 142.501 361.254L142.257 355.387C142.167 353.245 140.405 351.554 138.26 351.554H133.691C131.482 351.554 129.691 353.342 129.691 355.551C129.691 360.907 129.691 367.703 129.691 371.936C129.691 374.145 131.475 375.934 133.684 375.934C139.833 375.934 151.059 375.934 161.217 375.934C163.426 375.934 165.217 374.143 165.217 371.934L165.217 359.887C165.217 358.325 164.308 356.906 162.89 356.253L132.018 342.042C130.6 341.389 129.691 339.971 129.691 338.409Z" stroke="#FEFBFF" stroke-width="2"/>
<path d="M86.0752 363.188H85C82.7909 363.188 81 364.98 81 367.189C81 373.962 81 380.166 81 384.005C81 386.214 82.7909 388 85 388H100.12C102.329 388 104.12 386.209 104.12 384V328.278C104.12 326.069 105.911 324.278 108.12 324.278H114.782C116.991 324.278 118.782 326.069 118.782 328.278V372.158C118.782 374.367 116.991 376.158 114.782 376.158H97.9699C95.7608 376.158 93.9699 374.367 93.9699 372.158V367.188C93.9699 364.979 92.1791 363.188 89.9699 363.188H86.0752Z" stroke="#FEFBFF" stroke-width="2"/>
</g>
<defs>
<filter id="filter0_i_609_104" x="0" y="0" width="725" height="461" filterUnits="userSpaceOnUse" color-interpolation-filters="sRGB">
<feFlood flood-opacity="0" result="BackgroundImageFix"/>
<feBlend mode="normal" in="SourceGraphic" in2="BackgroundImageFix" result="shape"/>
<feColorMatrix in="SourceAlpha" type="matrix" values="0 0 0 0 0 0 0 0 0 0 0 0 0 0 0 0 0 0 127 0" result="hardAlpha"/>
<feOffset dx="3" dy="3"/>
<feGaussianBlur stdDeviation="3"/>
<feComposite in2="hardAlpha" operator="arithmetic" k2="-1" k3="1"/>
<feColorMatrix type="matrix" values="0 0 0 0 1 0 0 0 0 1 0 0 0 0 1 0 0 0 0.25 0"/>
<feBlend mode="normal" in2="shape" result="effect1_innerShadow_609_104"/>
</filter>
<linearGradient id="paint0_linear_609_104" x1="610.09" y1="61.83" x2="354.096" y2="526.995" gradientUnits="userSpaceOnUse">
<stop stop-color="#FACC15"/>
<stop offset="1" stop-color="#CA8A04"/>
</linearGradient>
<linearGradient id="paint1_linear_609_104" x1="171" y1="165" x2="87" y2="221" gradientUnits="userSpaceOnUse">
<stop stop-color="#F4F4F4"/>
<stop offset="1" stop-color="#D6D6D6"/>
</linearGradient>
<clipPath id="clip0_609_104">
<rect width="722" height="458" fill="white"/>
</clipPath>
</defs>
</svg>
