<svg width="84" height="70" viewBox="0 0 84 70" fill="none" xmlns="http://www.w3.org/2000/svg">
<path d="M42.0714 25.45L42.0714 19.6061C42.0714 17.397 43.8623 15.6061 46.0714 15.6061H64.5376C66.7467 15.6061 68.5376 17.397 68.5376 19.6061V21.1174C68.5376 23.3265 70.3285 25.1174 72.5376 25.1174H73.6353C75.8445 25.1174 77.6353 23.3265 77.6353 21.1174V11.539C77.6353 9.31471 75.8207 7.51762 73.5965 7.53922L55.9574 7.7105C53.7635 7.73181 51.9962 9.51633 51.9962 11.7103V18.1006C51.9962 18.3131 51.973 18.5267 51.9631 18.739C51.76 23.0818 61.8491 26.1809 75.2238 31.8432C76.6898 32.4639 77.6353 33.9075 77.6353 35.4995V41.6975C77.6353 43.9066 75.8445 45.6975 73.6353 45.6975H55.4195C53.2751 45.6975 51.5122 44.0065 51.423 41.864L51.3289 39.6062C51.2396 37.4637 49.4767 35.7727 47.3324 35.7727H46.0714C43.8623 35.7727 42.0714 37.562 42.0714 39.7711C42.0714 43.0593 42.0714 46.8615 42.0714 49.6541C42.0714 51.8632 43.8577 53.6513 46.0668 53.6513C50.4909 53.6513 57.5266 53.6513 64.1242 53.6513C66.3333 53.6513 68.124 51.8604 68.124 49.6513L68.124 42.5668C68.124 41.0051 67.2152 39.5863 65.7966 38.9333L44.3988 29.0835C42.9803 28.4305 42.0714 27.0116 42.0714 25.45Z" stroke="#161617" stroke-width="1.5"/>
<path d="M10.0865 44.3043V44.3043C8.03096 44.3043 6.36465 45.9717 6.36465 48.0272C6.36465 52.1039 6.36465 55.8459 6.36465 58.5033C6.36465 60.7124 8.15552 62.4998 10.3647 62.4998H19.3195C21.5287 62.4998 23.3195 60.709 23.3195 58.4998V19.7705C23.3195 17.5614 25.1104 15.7705 27.3195 15.7705H30.0714C32.2806 15.7705 34.0714 17.5614 34.0714 19.7705V49.8156C34.0714 52.0248 32.2806 53.8156 30.0714 53.8156H19.8759C17.6668 53.8156 15.8759 52.0248 15.8759 49.8156V48.3043C15.8759 46.0952 14.0851 44.3043 11.8759 44.3043H10.0865Z" stroke="#161617" stroke-width="1.5"/>
</svg>
